<svg width="97" height="96" viewBox="0 0 97 96" fill="none" xmlns="http://www.w3.org/2000/svg">
<g clip-path="url(#clip0_440_4810)">
<path d="M48.5 8C26.42 8 8.5 25.92 8.5 48C8.5 70.08 26.42 88 48.5 88C70.58 88 88.5 70.08 88.5 48C88.5 25.92 70.58 8 48.5 8ZM37.66 65.16L23.3 50.8C21.74 49.24 21.74 46.72 23.3 45.16C24.86 43.6 27.38 43.6 28.94 45.16L40.5 56.68L68.02 29.16C69.58 27.6 72.1 27.6 73.66 29.16C75.22 30.72 75.22 33.24 73.66 34.8L43.3 65.16C41.78 66.72 39.22 66.72 37.66 65.16Z" fill="#82CD47"/>
</g>
<defs>
<clipPath id="clip0_440_4810">
<rect width="96" height="96" fill="white" transform="translate(0.5)"/>
</clipPath>
</defs>
</svg>
