<?xml version="1.0" encoding="UTF-8"?><svg xmlns="http://www.w3.org/2000/svg" viewBox="0 0 500 500"><defs><style>.g,.h,.i,.j,.k{stroke:#263238;stroke-miterlimit:10;}.g,.l,.m,.n,.o{fill:#f2f2f2;}.h{fill:#263238;}.i,.p{fill:#92e3a9;}.l{opacity:.7;}.m{opacity:.45;}.n{opacity:.75;}.j{fill:#cfcfcf;}.k{fill:none;}</style></defs><g id="a"><g><path class="p" d="M475.74,203.77c11.61-10.93,9.19-32.5,7.17-46.65-2.62-18.31-9.53-36.02-21.06-50.56-5.4-6.81-12.12-12.12-19.48-16.53-41.41-24.85-90.16-36.55-137.86-41.07-32.74-3.1-58.01-.61-87.82,13.04,0,0-91.75,32.5-143.25,74.26-51.51,41.76-45.28,55.98-19.51,39.82-14.19,13.52-34.77,30.94-40.35,50.66-11.83,41.76,34.8,223.43,115.54,243.61,80.74,20.18,268.67-4.87,313.91-60.55,45.24-55.68,34.8-165.66,13.92-208.11-20.88-42.46,6.96,13.22,18.79,2.09Z"/><path class="l" d="M475.74,203.77c11.61-10.93,9.19-32.5,7.17-46.65-2.62-18.31-9.53-36.02-21.06-50.56-5.4-6.81-12.12-12.12-19.48-16.53-41.41-24.85-90.16-36.55-137.86-41.07-32.74-3.1-58.01-.61-87.82,13.04,0,0-91.75,32.5-143.25,74.26-51.51,41.76-45.28,55.98-19.51,39.82-14.19,13.52-34.77,30.94-40.35,50.66-11.83,41.76,34.8,223.43,115.54,243.61,80.74,20.18,268.67-4.87,313.91-60.55,45.24-55.68,34.8-165.66,13.92-208.11-20.88-42.46,6.96,13.22,18.79,2.09Z"/></g></g><g id="b"><g><ellipse class="h" cx="133.35" cy="178.65" rx="81.5" ry="46.91"/><path class="k" d="M130.63,78.19c-47.34,0-85.71-15.2-85.71-33.96l3.65,133.42c0,17.96,36.74,42.22,82.06,42.22s82.06-24.26,82.06-42.22l3.65-133.42c0,18.76-38.37,33.96-85.71,33.96Z"/><g><path class="g" d="M210.75,100.35c-.44,17.39-36.13,31.43-80.12,31.43s-79.68-14.04-80.12-31.43h-.13l2.06,75.15c0,17.11,35,40.22,78.19,40.22s78.19-23.12,78.19-40.22l2.06-75.15h-.13Z"/><ellipse class="g" cx="130.63" cy="100.03" rx="80.14" ry="31.75"/></g><ellipse class="k" cx="130.63" cy="44.23" rx="85.71" ry="33.96"/><ellipse class="k" cx="130.63" cy="44.23" rx="80.7" ry="31.98"/><line class="k" x1="66.61" y1="197.86" x2="65.31" y2="178.33"/><line class="k" x1="85.71" y1="185.27" x2="85.71" y2="209.58"/><line class="k" x1="85.71" y1="179.63" x2="85.71" y2="171.38"/></g></g><g id="c"><path class="h" d="M117.73,428.27c0-6.77-9.69-12.26-21.64-12.26s-21.64,5.49-21.64,12.26,9.69,12.26,21.64,12.26c0,0,3.78,8.79,2.54,12.11-.71,1.88-5.06,4.25-8.68,5.94-3.82-3.47-10.62-5.79-18.38-5.79-11.95,0-21.64,5.49-21.64,12.26s9.69,12.26,21.64,12.26,21.64-5.49,21.64-12.26c0-1.68-.6-3.28-1.67-4.73l.41-.03,7.79-6.35s1.64,1.02,2.05-.2c.41-1.23-1.02-1.23-1.02-2.05,0-.65-1.94-8.15-2.74-11.21,11.05-.55,19.72-5.81,19.72-12.21Z"/><g><path class="i" d="M77.63,397.03s-4.19,2.6-6.5,9.39c-2.31,6.79,1.3,16.47,5.64,20.52s10.98,8.82,19.22,8.96c8.24,.14,14.88-5.2,17.63-10.4,2.75-5.2,2.02-14.45-.29-20.23-2.31-5.78-11.56-10.84-17.34-11.99-5.78-1.16-10.69-1.73-18.35,3.76Z"/><path class="o" d="M102.34,417.27s-3.47,2.89-2.46,5.06c1.01,2.17,5.2-2.6,5.2-4.62s-1.73-1.59-2.75-.43Z"/><path class="o" d="M91.21,398.19s3.03,.87,3.76,3.03c.72,2.17-2.02,5.06-.43,5.49s5.49-2.75,5.2-6.79c-.29-4.05-4.34-6.07-6.07-6.07s-5.78-1.01-8.53,.14-7.8,2.6-10.12,6.65,6.07,1.16,7.23,.43c1.16-.72,3.9-6.36,8.96-2.89Z"/><path class="i" d="M77.92,429.69s-9.25-3.9-14.74-5.92c-5.49-2.02-14.31,.72-19.65,5.49-5.35,4.77-7.37,11.71-6.79,21.53,.58,9.83,9.25,16.91,12.43,18.06,3.18,1.16,8.67,2.6,8.67,2.6,0,0,6.65,2.17,10.69,1.73,4.05-.43,10.98-4.62,16.33-12.43,5.35-7.8,6.21-17.92,4.19-22.83-2.02-4.91-9.97-8.53-11.13-8.24Z"/><path class="h" d="M56.53,382.73s-1.3-.72-2.02-1.45c-.72-.72-1.16-1.59-1.73-1.45s-.87,.43-1.45,0-.58-.72-1.73-.43c-1.16,.29-2.89-.43-3.76,1.3-.87,1.73-.14,3.03,1.45,4.19,1.59,1.16,2.89,1.45,2.89,1.45,0,0,.43,.43,1.3,.43s2.31-.72,2.31-.72c0,0,0,.72,.58,1.3s2.17,.72,2.17,.72c0,0,4.34,5.2,6.21,15.46,1.88,10.26,4.05,24.86,4.05,26.16s.29,3.03,.29,3.03l1.45,.58,1.3-.43s-2.89-17.05-3.76-22.98c-.87-5.92-3.32-15.17-4.77-18.06-1.45-2.89-2.31-4.62-2.75-5.78-.43-1.16-1.45-.87-.43-1.16,1.01-.29,4.19,.29,4.19,.29,0,0,5.35,.29,12.86,4.77,7.51,4.48,12.43,13.58,12.72,14.31,.29,.72,0,2.75,1.59,2.75s2.89-1.45,2.75-2.75,1.16-.43-.14-1.3c-1.3-.87-2.46-1.16-2.89-1.59-.43-.43-4.19-6.07-10.26-11.27-6.07-5.2-17.92-7.23-17.92-7.23,0,0-3.03-1.16-4.48-.14Z"/><path class="o" d="M59.85,424.78s-1.59-.58-3.18,2.6-.43,5.06,1.01,6.65-6.5-.29-9.1-2.6c-2.6-2.31,.87-4.62,4.34-6.07,3.47-1.45,6.21-2.02,6.94-.58Z"/><path class="o" d="M77.77,442.55s.14,2.89,.87,3.61c.72,.72,4.19,.14,4.19-3.03s-2.89-4.34-5.06-.58Z"/><path class="o" d="M69.82,432.87s5.06,.14,5.06-1.59-3.61-3.32-4.48-2.6c-.87,.72-.87,2.6-.58,4.19Z"/><path class="o" d="M72.42,452.82s-1.3-1.59-2.6-.72c-1.3,.87-2.75,2.31-1.3,4.77s2.89,1.3,3.9,.43c1.01-.87,1.16,1.3,2.17,.58,1.01-.72,.72-.87,1.59-3.76,.87-2.89-1.88-2.17-2.31-1.59-.43,.58-1.45,1.45-1.45,1.45v-1.16Z"/><path class="o" d="M84.71,407.73s1.01,1.59,3.61,1.73c2.6,.14,4.05-2.02,4.05-2.02,0,0-4.48,1.16-6.36-.87s-1.73-.43-1.3,1.16Z"/></g></g><g id="d"><g><ellipse class="h" cx="275.5" cy="310.64" rx="195.89" ry="131.7"/><ellipse class="g" cx="276" cy="297.58" rx="199.84" ry="131.7"/><path class="k" d="M151.11,392.14c-44.01-23.17-72.08-58.33-72.08-97.7,0-5.42,.53-10.77,1.57-16.01"/><path class="k" d="M448.06,355.98c-33.68,38.66-98.11,64.79-172.06,64.79-43.84,0-84.33-9.19-117.06-24.72"/><path class="k" d="M464.12,332c-2.39,4.93-5.24,9.73-8.51,14.38"/></g></g><g id="e"><g><path class="h" d="M428.89,366.94h-19.12c.54,6.46,.86,10.55,.86,10.55,0,0,3.62,68.49,6.27,77.42,1.44,4.84,2.53,8.9,4.99,12.22,2.07,3.48,5.25,6.24,11.18,8.3,11.09,3.86,18.81-4.1,18.81-17.36s-14.23-60.05-14.23-60.05c0,0-4.13-14.19-8.77-31.07Z"/><g><g><path class="j" d="M361.59,140.56s4.1,68.25,6.27,82.96c2.17,14.71,1.69,24.36,9.16,29.18,7.48,4.82,19.05,7.48,21.95,15.19,2.89,7.72,9.65,93.09,9.65,93.09,0,0,3.62,68.49,6.27,77.42s4.1,15.19,15.19,19.05c11.09,3.86,18.81-4.1,18.81-17.36s-14.23-60.05-14.23-60.05c0,0-17.61-60.53-20.98-80.31-3.38-19.78-4.1-32.56-3.38-36.42,.72-3.86,11.33-15.68,15.43-22.43,4.1-6.75,3.62-18.57,2.17-24.12s-12.3-41-17.61-55.47c-5.31-14.47-12.06-29.91-12.06-29.91,0,0-.72,0,1.93,10.37s13.51,59.81,13.26,61.5c-.24,1.69-3.14,3.86-5.31,2.17-2.17-1.69-20.5-70.66-20.98-71.39s-1.21-.96-.24,5.55c.96,6.51,13.99,73.32,13.99,75.49s-1.93,5.55-6.03,2.41-18.33-78.62-18.81-79.59c-.48-.96-2.17-2.17-1.93,2.17,.24,4.34,10.13,66.8,10.13,69.46s-3.62,4.34-5.31,1.69c-1.69-2.65-15.68-70.42-15.68-70.42,0,0-.24-3.38-1.69-.24Z"/><path class="j" d="M360.61,139.09s4.1,68.25,6.27,82.96,1.69,24.36,9.16,29.18c7.48,4.82,19.05,7.48,21.95,15.19,2.89,7.72,9.65,93.09,9.65,93.09,0,0,3.62,68.49,6.27,77.42,2.65,8.92,4.1,15.19,15.19,19.05,11.09,3.86,18.81-4.1,18.81-17.36s-14.23-60.05-14.23-60.05c0,0-17.61-60.53-20.98-80.31-3.38-19.78-4.1-32.56-3.38-36.42s11.33-15.68,15.43-22.43c4.1-6.75,3.62-18.57,2.17-24.12-1.45-5.55-12.3-41-17.61-55.47-5.31-14.47-12.06-29.91-12.06-29.91,0,0-.72,0,1.93,10.37s13.51,59.81,13.26,61.5c-.24,1.69-3.14,3.86-5.31,2.17-2.17-1.69-20.5-70.66-20.98-71.39-.48-.72-1.21-.96-.24,5.55,.96,6.51,13.99,73.32,13.99,75.49s-1.93,5.55-6.03,2.41c-4.1-3.14-18.33-78.62-18.81-79.59s-2.17-2.17-1.93,2.17c.24,4.34,10.13,66.8,10.13,69.46s-3.62,4.34-5.31,1.69c-1.69-2.65-15.68-70.42-15.68-70.42,0,0-.24-3.38-1.69-.24Z"/><g><path class="h" d="M375.08,136.43c-.48-.96-2.17-2.17-1.93,2.17,.24,4.34,10.13,66.8,10.13,69.46s-3.62,4.34-5.31,1.69c-1.69-2.65-15.68-70.42-15.68-70.42,0,0-.24-3.38-1.69-.24,0,0,4.1,68.25,6.27,82.96,.07,.45,.12,.87,.18,1.31,6.45-2.9,15.48-6.44,25.81-9.05-5.03-11.76-17.35-76.97-17.79-77.87Z"/><path class="h" d="M425.65,210.78c-3.38-11.47-11.83-38.72-16.32-50.96-5.31-14.47-12.06-29.91-12.06-29.91,0,0-.72,0,1.93,10.37,2.65,10.37,13.51,59.81,13.26,61.5-.24,1.69-3.14,3.86-5.31,2.17-2.17-1.69-20.5-70.66-20.98-71.39-.48-.72-1.21-.96-.24,5.55,.91,6.17,12.65,66.47,13.88,74.62,8.21-1.61,17-2.49,25.83-1.96Z"/></g></g><ellipse class="m" cx="398.31" cy="234.68" rx="28.22" ry="17.51" transform="translate(-44.24 100.97) rotate(-13.69)"/><ellipse class="n" cx="398.31" cy="234.68" rx="24.91" ry="15.46" transform="translate(-44.24 100.97) rotate(-13.69)"/></g></g></g><g id="f"><g><path class="h" d="M155.16,292.39s6.26,5.81,11.63,8.5c5.37,2.68,10.63,4.72,10.63,4.72,0,0-6.73,18.81,3.4,24.71,10.13,5.9,22.65,5.01,22.65,5.01,0,0,8.95,9.39,16.55,8.95,7.6-.45,18.78-7.16,20.57-7.6,1.79-.45,3.13,1.79,7.16,1.34,4.03-.45,12.97-3.58,15.65-12.97,0,0-1.78,24.49,9.85,32.59s24.15,3.63,24.15,3.63c0,0,12.97,12.08,23.7,13.42s15.88-1.05,15.88-1.05c0,0,9.16,3.29,15.87,1.94,6.71-1.34,9.39-3.58,9.39-3.58,0,0,21.02,6.71,29.97-2.24s5.37-28.62,1.79-34.44q-3.58-5.81-2.68-16.55c.89-10.73,.89-19.68-9.39-28.18-10.29-8.5-231.18-12.43-231.18-12.43,0,0,.84,9.74,4.42,14.22Z"/><path class="i" d="M312.11,162.02s.59,2.48,.59,6.06-2.48,7.17-2.48,7.17l13.24,18.76,11.04,20.14s9.38,1.38,12.14,7.73c2.76,6.35-1.38,16-1.38,16l3.03,6.07,21.24,35.04s11.86,.55,15.17,12.14c3.31,11.59-3.31,20.14-3.31,20.14v16.55s6.9,.55,8.28,5.52c1.38,4.97-5.52,9.93-5.52,9.93l4.97,5.24s2.48,4.97,1.1,12.42c-1.38,7.45-6.35,11.86-16,13.24-9.66,1.38-15.73-7.45-15.73-7.45,0,0-11.86,6.62-21.52,6.9-9.66,.28-14.35-3.86-14.35-3.86,0,0-10.48,4.14-19.04,1.38-8.55-2.76-11.04-15.45-11.04-15.45,0,0-8.55,4.14-19.31,1.93-10.76-2.21-14.35-7.73-15.45-14.07s3.31-12.14,3.31-12.14l-4.14-.55s-8.83,3.86-17.93-.83c0,0-9.66,12.14-23.73,12.14s-14.62-12.69-14.62-12.69c0,0-12.14,5.24-19.87,.83-7.73-4.41-14.9-20.14-3.03-28.97,0,0-4.69-3.04-9.1-3.86-4.41-.83-6.39-2.27-6.39-2.27,0,0-9.06-8.77-11.55-17.05-2.48-8.28-11.31-26.21-11.86-31.73-.55-5.52,2.21-7.73,5.52-6.62,3.31,1.1,4.97,1.66,4.97,1.66,0,0-9.93-20.42-6.35-25.11,3.59-4.69,24.56-17.38,38.35-22.07,0,0,30.35-8,36.97-11.86,6.62-3.86,33.38-13.24,38.35-13.24s19.31-10.76,29.8-12.97c10.48-2.21,23.37-.54,25.62,5.8Z"/><g><path class="g" d="M231.1,222.49s-1.3,1.82,.26,5.45c1.56,3.63,3.12,6.23,3.12,6.23,0,0-1.3,3.12-.26,5.19l1.04,2.08s-.78,3.63,.52,7.79c1.3,4.15,2.08,6.23,2.08,6.23l-.52,3.37s-3.63,.78-5.71,2.86-4.67,4.15-4.67,4.15c0,0-6.49-.26-8.57,1.04-2.08,1.3-3.12,2.6-3.12,2.6,0,0-2.08,.26-1.82,2.34,.26,2.08,1.56,6.23,3.63,7.53,2.08,1.3,12.98,1.3,16.1,2.6,3.12,1.3,4.15,1.82,5.97,2.08,1.82,.26,3.37-2.34,3.37-2.34,0,0,4.15,3.63,5.45,4.15,1.3,.52,3.37,.78,3.37,.78,0,0,1.82,4.15,3.12,6.49,1.3,2.34,4.15,5.19,6.23,3.89,2.08-1.3,2.86-6.23,2.86-6.23,0,0,4.93,3.37,7.79,2.6,2.86-.78,4.41-2.6,4.41-2.6l3.12,.52s5.45,.52,7.53,0c2.08-.52,3.63-2.86,3.63-2.86h4.15s5.19,6.49,9.87,6.49,9.09-3.12,9.09-3.12c0,0,5.19,1.3,10.64,.52,5.45-.78,7.79-2.86,7.79-2.86,0,0,5.71,.52,8.05-1.04,2.34-1.56,4.41-2.6,4.41-2.6,0,0,2.08,1.04,5.45,.26,3.37-.78,6.23-3.12,7.01-3.12s2.6,.52,4.41,2.34,4.93,2.08,7.79-.26c2.86-2.34,5.97-4.67,5.19-9.87-.78-5.19-.78-9.09-2.08-12.46-1.3-3.38-2.08-4.67-2.08-5.71s-1.82-5.71-3.89-10.12c-2.08-4.41-1.82-5.71-3.37-7.27q-1.56-1.56-3.63-1.82c-2.08-.26-4.67-.26-6.75,.78-2.08,1.04-3.89,2.34-4.93,2.86-1.04,.52-3.63,.52-4.41,.52s-4.67,.26-4.67,.26c0,0-1.04-1.04-3.12,.26-2.08,1.3-2.6,3.12-2.6,3.12l-4.41,2.6s-1.82,0-3.37,1.04c-1.56,1.04-2.86,1.56-3.37,2.34-.52,.78-1.3,1.04-2.34,1.3-1.04,.26-2.86,.26-3.89,.78-1.04,.52-2.6,1.56-2.6,1.56l-2.34,2.34s.52-5.19-.78-7.53c-1.3-2.34-2.86-4.93-2.86-4.93,0,0,.52-3.38,0-4.93-.52-1.56-1.3-2.86-1.3-2.86,0,0,1.82-3.12,.26-6.23l-1.56-3.12s-.78-2.34-1.82-4.15c-1.04-1.82-1.04-.1-3.25-3.3-2.21-3.19-11.03-5.27-15.19-5.53-4.15-.26-22.59,4.41-23.88,4.41s-14.54,1.3-17.39,1.3-9.61-1.3-11.16,1.82Z"/><path class="k" d="M309.24,260.66s2.34,.78,2.86,4.15c.52,3.38-.26,7.27-.26,7.27,0,0,2.34,.52,2.6,3.89s-2.6,6.75-2.6,6.75c0,0,2.6,1.56,2.08,4.67s-.78,4.41-.78,4.41"/><path class="k" d="M251.87,264.03s1.82-2.6,5.19-1.3c3.37,1.3,4.67,2.34,4.67,2.34,0,0,3.63-1.56,5.45-1.04l1.82,.52"/><path class="k" d="M296.83,267.26c-1.31-.35-2.74-.57-3.94-.37-3.12,.52-5.45,2.34-5.45,2.34,0,0-2.6-2.08-4.67-.52s-3.63,2.86-3.63,2.86"/><path class="k" d="M300.68,268.7s-.9-.45-2.16-.91"/><path class="k" d="M301.45,253.39s-2.34-1.82-4.93-1.56c-2.6,.26-4.41,1.56-4.41,1.56,0,0-2.6-1.82-4.41-1.04-1.82,.78-3.63,1.82-3.63,1.82"/><path class="k" d="M272.35,235.39c1.06,.44,1.58,.86,1.58,.86,0,0,1.56-2.08,4.15-2.08s4.15,1.3,4.15,1.3c0,0,1.82-2.6,3.89-2.08l2.08,.52"/><path class="k" d="M264.85,236.25s2.6-2.08,5.19-1.56"/><path class="k" d="M345.33,277.01s-2.6,3.38-1.3,5.97"/><path class="k" d="M331.57,281.42s-1.56,1.82-.78,4.93"/><path class="k" d="M320.67,283.24s-2.86,3.63-1.04,5.97"/></g><g><path class="g" d="M153.44,225.88s17.09,3.17,21.84,6.01,8.55,1.27,10.13-.32l1.58-1.58s3.17,1.27,6.96,1.27,5.38-3.17,5.38-3.17c0,0,2.53,2.53,6.33,.32,3.8-2.22,4.43-3.8,4.43-3.8,0,0,2.53,1.58,4.75,.95,2.22-.63,5.06-2.85,5.06-2.85,0,0,5.06,3.8,8.23,3.48,3.17-.32,5.7-1.58,5.7-1.58,0,0,6.01,3.17,9.81,2.85,3.8-.32,6.65-2.22,6.65-2.22,0,0,6.65,2.53,10.76,1.27,4.11-1.27,7.28-4.11,7.28-4.11,0,0,5.06,1.9,7.91,.32,2.85-1.58,6.01-2.85,6.01-2.85,0,0,5.38,3.17,6.65,2.22,1.27-.95,3.8-2.85,3.8-2.85,0,0,3.17,2.85,6.01,1.27,2.85-1.58,5.38-4.43,5.38-4.43,0,0,6.01,1.58,7.6,0,1.58-1.58,2.53-3.17,2.53-3.17,0,0,.32,1.58,5.7,.95l5.38-.63s4.75,4.11,7.91,5.06c3.17,.95,6.01-3.17,5.06-6.01s-5.7-7.28-5.7-7.28c0,0,.63-2.22-1.27-6.65s-5.06-7.28-5.06-7.28c0,0-3.17-10.13-5.7-13.29-2.53-3.17-12.34-4.11-17.09-2.53-4.75,1.58-7.91,2.85-7.91,2.85,0,0-21.21,0-24.69,1.9-3.48,1.9-6.65,3.17-6.65,3.17,0,0-5.38,.63-6.65,.95-1.27,.32-6.4-.92-6.4-.92,0,0-5.64,.3-11.33,3.78s-10.12,5.69-10.12,5.69c0,0-4.43,.63-6.01,2.22-1.58,1.58-4.75,2.22-4.75,2.22,0,0-16.46,0-18.99-.32-2.53-.32-8.81,1.78-16.27,1.52-7.47-.26-20.13,2.91-24.56,6.7-4.43,3.8-11.4,6.01-11.4,10.76s5.7,10.13,5.7,10.13Z"/><path class="h" d="M173.91,199.55s-5.88,9.64-8.47,11.76c-2.59,2.12-8.47,3.76-9.17,5.88-.71,2.12-1.18,6.82-1.18,6.82,0,0-4.7-7.29-3.53-11.05,1.18-3.76,4.94-2.59,9.41-8.7,4.47-6.11,12.93-9.17,12.93-4.7Z"/><path class="k" d="M187.18,228.14s-1.91-.96-1.43-4.3,6.21-8.12,6.21-8.12"/><path class="k" d="M199.84,217.63s-4.27,2.92-2.39,6.69"/><path class="k" d="M210.1,224.61s-2.38-4.35-1.9-5.78,2.39-3.34,2.39-3.34"/><path class="k" d="M225.87,215.96s-5.02,1.91-5.02,3.82"/><path class="k" d="M249.28,216.44s-.54,4.57,.24,6.69"/><path class="k" d="M264.81,215c.24-.72,3.15,3.6,3.34,5.49"/><path class="k" d="M279.14,211.42s1.43,3.82,1.67,6.21"/><path class="k" d="M291.8,209.03s.99,5.57,.96,7.88"/><path class="k" d="M302.31,207.84s2.39,4.3,1.43,6.21"/><path class="k" d="M312.81,204.97s2.39,3.82,1.19,6.21"/><path class="k" d="M287.6,202.06c1.99-.95,3.96-1.86,3.96-1.86l2.63-.96"/><path class="k" d="M272.21,207.84l5.73-2.87s2.64-.14,4.43-.52"/><path class="k" d="M222.05,212.62c3.58,.96,17.67,2.87,17.67,2.87,0,0,4.54-1.67,7.64-1.91,3.1-.24,9.79-.48,9.79-.48,0,0,7.64-2.63,8.84-3.11,.43-.17,1.35-.5,2.36-.84"/><path class="k" d="M211.78,212.38s3.76-.4,7.15-.2"/><path class="k" d="M169.74,218.11c-3.34,2.15-4.78,4.06-4.78,4.78s.72,1.91,.72,1.91"/><path class="k" d="M186.46,199.48s-6.69,2.87-8.6,6.93c-1.36,2.9-2.15,5.25-3.34,7.17-.87,1.39-1.23,2.02-2.64,3.08"/></g><g><path class="g" d="M313.87,158.75s.25-9.06-2.27-10.83c-2.52-1.76-12.09,1.51-12.09,1.51,0,0-8.56,1.76-11.08,1.76h-10.07s-4.28,0-10.58,1.01c-6.29,1.01-7.3,.76-16.37,3.53s-5.04,.76-17.12,5.54c-12.09,4.78-15.86,9.82-20.65,13.85-4.78,4.03-39.78,14.86-39.78,14.86,0,0-7.3-2.01-15.61,4.03-8.31,6.04-8.06,5.29-10.07,7.3-2.01,2.01-4.78,4.03-4.78,4.03,0,0-6.04,2.77-10.07,5.04-4.03,2.27-8.56,4.53-8.56,4.53l-4.03,4.28s-1.01,8.31,.76,11.33c1.76,3.02,6.04,9.82,6.04,9.82,0,0,8.56,23.16,12.09,26.19s10.07,17.63,12.09,20.14c2.01,2.52,4.78,6.55,6.55,7.3s4.28,3.02,4.03,1.26c-.25-1.76-5.29-7.81-6.04-12.84-.76-5.04-1.51-4.78-4.53-13.34-3.02-8.56-3.27-8.81-5.29-13.85-2.01-5.04-5.54-8.81-3.52-9.06,2.01-.25,8.81,5.04,10.07,5.04s1.01-1.76,2.52-7.05c1.51-5.29,.5-8.81,.25-10.83-.25-2.01-2.27-15.61-2.01-17.63,.25-2.01,10.58-5.79,12.59-7.55,2.01-1.76,4.28-5.79,6.04-8.06,1.76-2.27,8.06-1.76,11.33-1.76s14.86-.5,20.9-3.27,10.83-5.04,14.35-6.04c3.53-1.01,9.32,.25,13.34-3.27,4.03-3.53,7.81-5.04,9.57-6.04,1.76-1.01-3.53,6.55-2.01,7.3,1.51,.76,7.55-2.27,11.33-3.78,3.78-1.51,10.83-6.04,13.09-5.79,2.27,.25,8.06,1.26,10.58,.25,2.52-1.01,13.85-2.01,15.36-4.28,1.51-2.27,4.28-7.81,2.01-9.32-2.27-1.51-4.28-2.52-5.29-2.77-1.01-.25,22.66,2.52,25.18,.76,2.52-1.76,1.76-3.27,1.76-3.27Z"/><path class="k" d="M246.77,172.11c5.2-8.47,11.2-15.88,11.2-15.88"/><path class="k" d="M243.87,177.13c.46-.85,.94-1.71,1.43-2.56"/><path class="k" d="M274.34,155.47s-7.55,9.82-4.53,12.84,3.27,5.54,11.83,5.29"/><line class="k" x1="270.06" y1="170.83" x2="264.77" y2="175.11"/><path class="k" d="M172.62,191.98s2.01,.76,.25,4.28c-1.76,3.53-4.03,4.28-4.03,4.28,0,0,.5,2.77-4.03,5.54"/><path class="k" d="M236.82,165.8s-4.28,1.26-5.29,4.78c-1.01,3.53-1.26,4.78-1.51,5.54s-3.78,0-4.03,4.53c-.25,4.53,2.52,5.04,3.53,5.04"/><path class="k" d="M152.45,203.3c.54-.3,1.14-.63,1.79-1,4.53-2.52,5.04-6.55,8.81-8.06"/><path class="k" d="M128.18,226.88c-.13-.97-.19-2.04-.13-3.17,.25-4.53,3.27-5.79,3.27-5.79,0,0,1.51-4.78,5.04-5.79s5.54-1.01,5.54-1.01c0,0,2.52-2.77,4.28-4.03,.95-.68,1.91-1.29,3.29-2.1"/><path class="k" d="M134.35,247.63s-3.27-3.27-5.04-7.81c-1.76-4.53,.25-8.06,.25-8.06,0,0-.46-.91-.87-2.4"/><path class="k" d="M286.93,161.27s-3.78-.76-5.29-4.53c-1.51-3.78-3.78-4.53-5.79-3.78"/></g><path class="i" d="M381.4,311.28s-19.04-6.62-22.07-5.24c-3.03,1.38,2.21,8,3.86,11.59,1.66,3.59,7.73,23.18,8.28,25.38s4.97,4.14,7.17,6.35,2.76,4.69,5.24,4.14c2.48-.55,2.76-1.38,5.24-4.97,2.48-3.59-2.76-9.66-2.76-9.66,0,0,1.1-4.69-.55-7.73l-1.66-3.03s.83-3.59,0-6.35c-.83-2.76-2.21-4.14-2.21-4.14,0,0,1.66-2.21-.55-6.35Z"/><g><path class="o" d="M308.01,304.11s0,1.38-3.59,3.86c-3.59,2.48-6.62,3.03-4.41,4.97,2.21,1.93,4.41,.83,8.28-3.59,3.86-4.41,3.31-9.1-.28-5.24Z"/><path class="o" d="M303.6,342.18s-4.69-.83-8,5.24c-3.31,6.07,12.69-1.1,12.69-3.03s-.83-3.31-4.69-2.21Z"/><path class="o" d="M266.63,328.66s-4.69,3.31-5.24,7.17c-.55,3.86,.83,6.62,2.76,5.52,1.93-1.1,.83-5.24,4.14-6.9,3.31-1.66,7.73-1.93,6.62-4.41-1.1-2.48-4.97-3.31-8.28-1.38Z"/><path class="o" d="M247.86,308.52s-7.17-3.03-8.28-.83,6.9,1.1,6.35,3.31c-.55,2.21-4.14,0-2.48,3.86,1.66,3.86,4.97,1.1,6.07-1.38,1.1-2.48-.28-4.97-1.66-4.97Z"/><path class="o" d="M210.89,319.56s-4.14-1.66-6.9,2.48c-2.76,4.14,.83,5.79,2.76,4.41,1.93-1.38,5.24-2.76,7.45-4.14,2.21-1.38-3.31-2.76-3.31-2.76Z"/><path class="o" d="M220.83,323.42s-1.1,3.31-3.31,5.24-3.03,5.24,1.38,3.31c4.41-1.93,3.86-11.31,1.93-8.55Z"/><path class="o" d="M181.1,260.24s-2.21,7.17-4.14,8.28c-1.93,1.1-8.55,1.1-6.35-4.97,2.21-6.07,10.48-9.38,10.48-3.31Z"/><path class="o" d="M193.51,292.79s-6.9-7.17-8.55-3.86c-1.66,3.31,3.03,6.35,7.17,6.62s3.03-.83,1.38-2.76Z"/><path class="o" d="M196.27,289.07c0,.69-.56,1.24-1.24,1.24s-1.24-.56-1.24-1.24,.56-1.24,1.24-1.24,1.24,.56,1.24,1.24Z"/><path class="o" d="M203.17,293.48c0,.69-.56,1.24-1.24,1.24s-1.24-.56-1.24-1.24,.56-1.24,1.24-1.24,1.24,.56,1.24,1.24Z"/><path class="o" d="M197.79,291.69c0,.76-.62,1.38-1.38,1.38s-1.38-.62-1.38-1.38,.62-1.38,1.38-1.38,1.38,.62,1.38,1.38Z"/><path class="o" d="M207.31,290.45c0,.84-.68,1.52-1.52,1.52s-1.52-.68-1.52-1.52,.68-1.52,1.52-1.52,1.52,.68,1.52,1.52Z"/><circle class="o" cx="208.55" cy="299.28" r="1.24"/><circle class="o" cx="210.34" cy="295.55" r="1.1"/><path class="o" d="M180.81,317.02c0,1.13-.92,2.05-2.05,2.05s-2.05-.92-2.05-2.05,.92-2.05,2.05-2.05,2.05,.92,2.05,2.05Z"/><circle class="o" cx="182.06" cy="303.01" r="1.43"/><path class="o" d="M178.67,305.6c0,.34-.28,.62-.62,.62s-.62-.28-.62-.62,.28-.62,.62-.62,.62,.28,.62,.62Z"/><circle class="o" cx="177.42" cy="289.1" r=".89"/><circle class="o" cx="181.61" cy="288.47" r="1.34"/><path class="o" d="M178.67,287.22c0,.54-.44,.98-.98,.98s-.98-.44-.98-.98,.44-.98,.98-.98,.98,.44,.98,.98Z"/><path class="o" d="M166.36,272.86c0,.69-.56,1.25-1.25,1.25s-1.25-.56-1.25-1.25,.56-1.25,1.25-1.25,1.25,.56,1.25,1.25Z"/><circle class="o" cx="165.02" cy="280.62" r="1.52"/><circle class="o" cx="167.34" cy="277.41" r="1.7"/><path class="o" d="M211.68,259.92c0,.54-.44,.98-.98,.98s-.98-.44-.98-.98,.44-.98,.98-.98,.98,.44,.98,.98Z"/><path class="o" d="M215.25,263.58c0,.49-.84,.89-1.87,.89s-1.87-.4-1.87-.89,.84-.89,1.87-.89,1.87,.4,1.87,.89Z"/><path class="o" d="M160.47,247.43c0,.94-.48,1.7-1.07,1.7s-1.07-.76-1.07-1.7,.48-1.7,1.07-1.7,1.07,.76,1.07,1.7Z"/><path class="o" d="M162.08,248.32c0,.64,.52,1.16,1.16,1.16s1.16-.52,1.16-1.16-.52-1.16-1.16-1.16-1.16,.52-1.16,1.16Z"/><path class="o" d="M165.82,246.36c0,.34,.4,.62,.89,.62s.89-.28,.89-.62-.4-.62-.89-.62-.89,.28-.89,.62Z"/><ellipse class="o" cx="170.37" cy="249.39" rx=".98" ry=".62"/><ellipse class="o" cx="172.78" cy="252.96" rx=".89" ry=".98"/><ellipse class="o" cx="311.43" cy="331.21" rx="2.68" ry="1.43"/><path class="o" d="M365.14,357.62s2.14-6.78,.71-9.64c-1.43-2.86-4.28-1.25-5.71,1.07s-1.61,2.86,0,1.61c1.61-1.25,2.85-3.39,3.93-1.96,1.07,1.43,.54,3.21,0,5.53-.54,2.32-1.96,5.35-.71,4.82,1.25-.54,1.78-1.43,1.78-1.43Z"/><path class="o" d="M361.39,353.87s-.36,2.5-1.43,4.64c-1.07,2.14,0,2.68,.71,1.78s2.5-9.99,.71-6.42Z"/><path class="o" d="M335.88,349.59s-7.49-2.85-5.71-1.07,5.89,1.96,5.71,1.07Z"/><path class="o" d="M339.09,353.33s-4.1-1.61-3.93,2.32,.36,3.21-.54,5.17c-.89,1.96-2.14,3.57-2.5,5-.36,1.43,3.21-3.03,4.46-5,1.25-1.96-.54-5.17,.54-6.25,1.07-1.07,2.32,.54,1.96-1.25Z"/><ellipse class="o" cx="335.16" cy="301.23" rx="2.14" ry="1.78"/></g><g><path class="k" d="M206.22,245.52c3.57-5.09,11.03-11.39,25.22-8.01"/><path class="k" d="M203.39,251.02s.42-1.41,1.49-3.35"/><path class="k" d="M175.09,241.08s10.28-7.66,22.95,5.1"/><path class="k" d="M202.72,279.54c-3.56,5.59-8.25,5.39-8.25,5.39"/><path class="k" d="M177.9,252.81s12.75-3.82,19.89,1.53c7.14,5.35,9.94,14.02,6.37,22.44"/><path class="k" d="M168.72,259.69s-5.1,11.98,4.33,22.18"/><path class="k" d="M189.62,296.92s10.96,1.02,13.51,10.96"/><path class="k" d="M200.33,325.98s.51-10.71,9.43-15.04"/><path class="k" d="M217.99,309.11c1.66,.45,3.69,.73,6.05,.56,7.14-.51,11.47-2.29,12.24-10.71"/><path class="k" d="M212.83,306.6s.99,.87,2.86,1.69"/><path class="k" d="M259.06,302.06c3.86-1.66,6.03-4.13,6.03-4.13"/><path class="k" d="M230.93,286.72s3.31,11.98,15.04,15.81c3.27,1.07,6.2,1.18,8.73,.79"/><path class="k" d="M289.81,309.19c6.87-3.02,8.79-8.94,9.19-11.51"/><path class="k" d="M266.37,303.29s3.06,8.67,16.06,7.65c1.47-.12,2.81-.33,4.04-.63"/><path class="k" d="M266.62,323.94s15.55-5.35,25.75,8.16"/><path class="k" d="M329.03,309.83c-.03-2.47-.51-5.04-1.47-7.56"/><path class="k" d="M298.49,321.9s8.41,6.12,18.87,3.57c6.42-1.57,10.23-6.21,11.33-11.87"/><path class="k" d="M311.71,232.93c1.34,.7,12.82-9.22,24.65,3.92"/><path class="k" d="M355.27,292.94c.85,1.22,1.68,2.7,2.38,4.49,2.8,7.14,0,16.32-10.71,19.38"/><path class="k" d="M350,287.99s2.08,.98,4.3,3.67"/><path class="k" d="M340.82,322.41s-3.57,6.63-1.78,12.49c1.78,5.86,8.41,11.47,16.83,10.71s10.96-8.16,10.96-10.45"/><path class="k" d="M306.91,325.98s-5.86,5.1,0,13.77"/><path class="k" d="M322.69,346.65c.55,.81,1.08,1.74,1.56,2.79,3.82,8.41-.25,17.08-.25,17.08"/><path class="k" d="M313.54,340.77s2.96,.11,6.08,2.56"/></g></g></g></svg>