<svg width="24" height="25" viewBox="0 0 24 25" fill="none" xmlns="http://www.w3.org/2000/svg">
<g clip-path="url(#clip0_72_1131)">
<rect y="0.5" width="24" height="24" rx="12" fill="white"/>
<path d="M0 0.5H100V100.5H0V0.5Z" fill="white"/>
<path d="M12.2041 6.06001C14.1202 6.06001 15.4127 6.91168 16.1497 7.62334L19.0295 4.73001C17.2608 3.03834 14.9592 2 12.2041 2C8.21317 2 4.76646 4.35667 3.08846 7.78668L6.38778 10.4233C7.21544 7.89168 9.50569 6.06001 12.2041 6.06001Z" fill="#EA4335"/>
<path d="M22 12.7333C22 11.87 21.932 11.24 21.7846 10.5867H12.2041V14.4834H17.8277C17.7143 15.4517 17.102 16.91 15.7415 17.89L18.9615 20.4567C20.8889 18.625 22 15.93 22 12.7333Z" fill="#4285F4"/>
<path d="M6.39909 14.5767C6.18367 13.9233 6.05896 13.2233 6.05896 12.5C6.05896 11.7767 6.1837 11.0767 6.38778 10.4233L3.08846 7.78668C2.39685 9.21001 2 10.8083 2 12.5C2 14.1917 2.39683 15.79 3.08843 17.2133L6.39909 14.5767Z" fill="#FBBC05"/>
<path d="M12.2041 23C14.9592 23 17.2721 22.0667 18.9615 20.4567L15.7415 17.89C14.8798 18.5084 13.7233 18.94 12.2041 18.94C9.50564 18.94 7.21542 17.1083 6.39909 14.5767L3.09975 17.2133C4.77775 20.6433 8.21313 23 12.2041 23Z" fill="#34A853"/>
</g>
<defs>
<clipPath id="clip0_72_1131">
<rect y="0.5" width="24" height="24" rx="12" fill="white"/>
</clipPath>
</defs>
</svg>
