<svg width="68" height="86" viewBox="0 0 68 86" fill="none" xmlns="http://www.w3.org/2000/svg">
<path d="M62.4839 23.3304C61.5987 23.3304 60.8794 22.611 60.8794 21.7259V9.6678C60.8794 6.77162 58.5234 4.41564 55.6272 4.41564C52.731 4.41564 50.375 6.77162 50.375 9.6678V14.2033C50.375 15.0884 49.6557 15.8078 48.7705 15.8078C47.8853 15.8078 47.166 15.0884 47.166 14.2033V9.6678C47.166 5.00397 50.9607 1.20657 55.6272 1.20657C60.2937 1.20657 64.0884 5.00129 64.0884 9.6678V21.7259C64.0884 22.611 63.3691 23.3304 62.4839 23.3304Z" fill="white"/>
<path d="M55.5976 16.0352C54.7124 16.0352 53.993 15.3159 53.993 14.4307C53.993 12.4518 55.2392 10.66 57.0925 9.96741L61.9248 8.16499C62.7538 7.85478 63.6791 8.27731 63.9893 9.10631C64.2995 9.93532 63.877 10.8606 63.048 11.1708L58.2156 12.9732C57.6113 13.1979 57.2048 13.7835 57.2048 14.428C57.2048 15.3132 56.4854 16.0325 55.6002 16.0325L55.5976 16.0352Z" fill="white"/>
<path d="M55.5976 23.3305C54.7124 23.3305 53.993 22.6111 53.993 21.7259C53.993 19.747 55.2392 17.9553 57.0925 17.2627L61.9248 15.4602C62.7538 15.15 63.6791 15.5725 63.9893 16.4016C64.2995 17.2306 63.877 18.1558 63.048 18.4661L58.2156 20.2685C57.6113 20.4931 57.2048 21.0788 57.2048 21.7233C57.2048 22.6084 56.4854 23.3278 55.6002 23.3278L55.5976 23.3305Z" fill="white"/>
<path d="M15.6824 33.5566H22.0711C22.4107 33.5566 22.6621 33.7598 22.8332 34.1636C22.8519 34.2118 22.8626 34.2706 22.8626 34.3481V36.5624C22.8626 36.902 22.6594 37.1588 22.2556 37.3379C22.1807 37.3566 22.1139 37.3673 22.0577 37.3673H18.7283C18.7096 37.3673 18.6989 37.378 18.6989 37.3968V42.911C18.6989 42.9297 18.7069 42.9404 18.7283 42.9404H20.6751C20.7687 42.9404 20.881 42.9351 21.0147 42.927C21.2501 42.927 21.472 43.0527 21.678 43.3068C21.7822 43.4485 21.8331 43.6357 21.8331 43.871V45.6628C21.8331 46.096 21.7341 46.3821 21.5362 46.5239C21.3758 46.6656 21.2019 46.7351 21.0147 46.7351H18.731C18.7122 46.7458 18.7015 46.7539 18.7015 46.7645V54.9717C18.7015 55.0653 18.7069 55.1776 18.7149 55.3114C18.7149 55.5467 18.5839 55.7686 18.3191 55.9746C18.1774 56.0789 17.9956 56.1297 17.7682 56.1297H15.9765C15.5353 56.1297 15.2438 56.0254 15.102 55.8195C14.9603 55.659 14.8908 55.4905 14.8908 55.3114V40.0095C14.8908 38.6376 14.8854 36.7576 14.8774 34.3695C14.8774 34.1342 15.0084 33.9123 15.2732 33.7063C15.4042 33.6127 15.5406 33.5646 15.6824 33.5646V33.5566Z" fill="white"/>
<path d="M29.4037 33.5566H29.8396C30.5911 33.5566 31.4014 33.8 32.2651 34.2894C33.2706 34.9285 33.9766 35.8164 34.3804 36.9556C34.5596 37.4904 34.6479 37.9611 34.6479 38.3649V51.2974C34.6479 52.1157 34.3671 52.9795 33.8028 53.8914C33.6236 54.1535 33.3455 54.469 32.9711 54.8354C31.9656 55.6912 30.8451 56.119 29.615 56.119C28.3073 56.119 27.1386 55.6457 26.1037 54.6937C25.625 54.1856 25.3148 53.763 25.1731 53.4234C24.9939 53.1132 24.8522 52.7415 24.7506 52.3083C24.6757 52.1104 24.6195 51.7306 24.5821 51.1664V38.5173C24.5821 37.6348 24.8495 36.7416 25.387 35.8378C26.0075 34.8777 26.914 34.1931 28.1094 33.7786C28.6175 33.6288 29.048 33.554 29.4064 33.554L29.4037 33.5566ZM28.4036 39.127V50.5353C28.4036 51.1664 28.433 51.4793 28.4891 51.4793C28.5747 51.7413 28.7512 51.9633 29.024 52.1425C29.2299 52.2361 29.4144 52.2842 29.5749 52.2842H29.6738C30.1338 52.2842 30.4975 52.0302 30.7595 51.5221C30.8077 51.3723 30.8291 51.2439 30.8291 51.1423V38.52C30.8291 38.06 30.575 37.7017 30.0669 37.4476C29.9172 37.3995 29.7861 37.3781 29.6711 37.3781H29.5722C29.1202 37.3781 28.7726 37.6081 28.5292 38.0681C28.4437 38.1429 28.4036 38.4959 28.4036 39.127Z" fill="white"/>
<path d="M42.3361 33.5566H42.772C43.5341 33.5566 44.3417 33.7999 45.1975 34.2893C46.203 34.9285 46.909 35.8163 47.3128 36.9555C47.492 37.4904 47.5802 37.961 47.5802 38.3648V40.7342C47.5802 41.0925 47.3636 41.3493 46.9304 41.5097C46.8368 41.5284 46.7432 41.5391 46.6496 41.5391H44.7028C44.2134 41.5391 43.9032 41.2984 43.7721 40.8198C43.7614 40.7262 43.7588 40.6513 43.7588 40.5951V38.5226C43.7588 38.0626 43.5047 37.7043 42.9966 37.4502C42.8469 37.4021 42.7158 37.3807 42.6008 37.3807H42.5019C42.0499 37.3807 41.7023 37.6107 41.4589 38.0707C41.3734 38.1455 41.3332 38.4985 41.3332 39.1297V50.5379C41.3332 51.169 41.3627 51.4819 41.4188 51.4819C41.5044 51.7439 41.6809 51.9659 41.9537 52.1451C42.1596 52.2387 42.3441 52.2868 42.5045 52.2868H42.6035C43.0742 52.2868 43.4352 52.0328 43.6892 51.5247C43.7374 51.3749 43.7588 51.2465 43.7588 51.1449V47.7888H43.6598C43.1704 47.7888 42.8602 47.5481 42.7292 47.0694C42.7185 46.9758 42.7158 46.9009 42.7158 46.8448V44.8979C42.7158 44.4086 42.9592 44.0984 43.4485 43.9673C43.5421 43.9593 43.6117 43.9539 43.6598 43.9539H46.6924C47.1256 43.9539 47.4171 44.1786 47.5668 44.6305C47.5749 44.668 47.5802 44.7054 47.5802 44.7428V55.3194C47.5802 55.6777 47.3636 55.9344 46.9304 56.0949C46.8368 56.1136 46.7432 56.1243 46.6496 56.1243H44.7028C44.422 56.1243 44.2054 56.0441 44.0529 55.8836C43.5368 56.0441 43.0314 56.1243 42.5447 56.1243C41.237 56.1243 40.0683 55.651 39.0334 54.699C38.5547 54.1909 38.2445 53.7683 38.1028 53.4287C37.9236 53.1185 37.7819 52.7468 37.6803 52.3136C37.6054 52.1157 37.5492 51.7359 37.5118 51.1717C37.5198 50.947 37.5252 50.7759 37.5252 50.6636V38.9879C37.5252 38.8649 37.5198 38.7098 37.5118 38.5226C37.5118 37.6401 37.7792 36.7469 38.3167 35.843C38.9371 34.883 39.8437 34.1984 41.0391 33.7839C41.5472 33.6341 41.9777 33.5593 42.3361 33.5593V33.5566Z" fill="white"/>
<path d="M51.0089 33.5566H53.2232C53.5628 33.5566 53.8195 33.7598 53.9987 34.1636C54.0174 34.2385 54.0281 34.3054 54.0281 34.3615V54.9637C54.0281 55.0573 54.0335 55.1696 54.0415 55.3033C54.0415 55.5387 53.9104 55.7606 53.6457 55.9665C53.504 56.0708 53.3221 56.1216 53.0948 56.1216H51.3031C50.8618 56.1216 50.5703 56.0174 50.4286 55.8114C50.2869 55.651 50.2174 55.4825 50.2174 55.3033V34.7011C50.2174 34.6075 50.212 34.4952 50.204 34.3615C50.204 34.1262 50.335 33.9042 50.5998 33.6983C50.7308 33.6047 50.8672 33.5566 51.0089 33.5566Z" fill="white"/>
<path d="M56.7718 63.9973H11.8262C9.14132 63.9973 6.83347 62.0826 6.33874 59.4431L1.38875 33.0673C1.08122 31.4307 1.51444 29.754 2.57878 28.473C3.64312 27.1921 5.21021 26.454 6.87625 26.454H61.7218C63.3879 26.454 64.955 27.1894 66.0193 28.473C67.0836 29.7566 67.5169 31.4307 67.2093 33.0673L62.2594 59.4458C61.7646 62.0853 59.4568 64 56.7718 64V63.9973ZM6.87625 29.663C6.16759 29.663 5.5017 29.9759 5.04976 30.5215C4.59782 31.067 4.4133 31.7783 4.54433 32.4763L9.49431 58.8548C9.70558 59.978 10.687 60.791 11.8289 60.791H56.7718C57.9137 60.791 58.8952 59.978 59.1064 58.8548L64.0564 32.4763C64.1875 31.781 64.0029 31.067 63.551 30.5215C63.0991 29.9759 62.4332 29.663 61.7245 29.663H6.87625Z" fill="white"/>
<path d="M47.3184 23.3304C46.7247 23.3304 46.1524 22.9988 45.8743 22.4292C43.6975 17.9632 39.2609 15.1901 34.2976 15.1901C29.3342 15.1901 24.8977 17.9632 22.7209 22.4292C22.3331 23.2261 21.3731 23.5577 20.5762 23.1673C19.7792 22.7795 19.4476 21.8194 19.8381 21.0225C22.5551 15.4441 28.0987 11.9783 34.3003 11.9783C40.5018 11.9783 46.0428 15.4441 48.7624 21.0225C49.1502 21.8194 48.8186 22.7795 48.0244 23.1673C47.797 23.2769 47.559 23.3304 47.3237 23.3304H47.3184Z" fill="white"/>
<path d="M30.2835 11.0451C28.6683 11.0451 26.8124 10.2241 25.272 8.68375C22.7503 6.16196 22.1592 2.80047 23.9296 1.03013C24.8682 0.0914815 26.3043 -0.224076 27.866 0.163685C29.1604 0.487266 30.4814 1.27081 31.5832 2.37259C34.105 4.89438 34.696 8.25588 32.9257 10.0262C32.2384 10.7135 31.3104 11.0451 30.2835 11.0451ZM26.5771 3.20695C26.3711 3.20695 26.2428 3.25241 26.1973 3.29787C26.1198 3.37542 26.0476 3.67761 26.1759 4.18839C26.3578 4.91577 26.8552 5.72606 27.5398 6.41334C29.0026 7.87614 30.4279 7.98578 30.6552 7.7558C30.8826 7.52581 30.7729 6.10313 29.3101 4.64033C28.6255 3.95573 27.8152 3.45832 27.0852 3.27648C26.8819 3.22567 26.7108 3.20695 26.5744 3.20695H26.5771Z" fill="white"/>
<path d="M38.3331 11.0558C37.2821 11.0558 36.3515 10.7028 35.6749 10.0262C33.9045 8.25587 34.4956 4.89437 37.0173 2.37259C38.1191 1.27081 39.4375 0.48726 40.7345 0.16368C42.2962 -0.226756 43.7323 0.0888016 44.671 1.03013C45.6096 1.96878 45.9252 3.40483 45.5374 4.96658C45.2138 6.2609 44.4303 7.58197 43.3285 8.68374C42.2267 9.78552 40.9083 10.5691 39.6113 10.8926C39.1728 11.0023 38.7449 11.0558 38.3331 11.0558ZM42.0208 3.20694C41.8844 3.20694 41.7133 3.22566 41.51 3.27647C40.7826 3.45832 39.9724 3.95572 39.2851 4.64032C37.8223 6.10312 37.7153 7.52848 37.9426 7.75579C38.0202 7.83334 38.3224 7.90287 38.8331 7.77718C39.5605 7.59534 40.3708 7.09793 41.0581 6.41333C41.7454 5.72873 42.2401 4.91844 42.4219 4.18838C42.5503 3.6776 42.4781 3.37542 42.4005 3.29787C42.3524 3.24973 42.224 3.20694 42.0208 3.20694Z" fill="white"/>
<path d="M2.25504 23.3304C1.47416 23.3304 0.786889 22.7582 0.669224 21.9612C0.613065 21.5788 0.583649 21.1884 0.583649 20.8006C0.583649 16.5567 3.97456 13.0909 8.18645 12.9652C8.30947 8.7506 11.7779 5.36237 16.0192 5.36237C20.2606 5.36237 23.8574 8.87897 23.8574 13.2005C23.8574 14.0857 23.138 14.805 22.2528 14.805C21.3677 14.805 20.6483 14.0857 20.6483 13.2005C20.6483 10.6493 18.5731 8.57143 16.0192 8.57143C13.4654 8.57143 11.3902 10.6466 11.3902 13.2005C11.3902 13.5802 11.4437 13.9734 11.5479 14.3718C11.6924 14.9227 11.5319 15.5084 11.1308 15.9122C10.727 16.316 10.1413 16.4738 9.59042 16.3293C9.19196 16.225 8.79618 16.1716 8.41911 16.1716C5.86791 16.1716 3.79004 18.2468 3.79004 20.8006C3.79004 21.0306 3.80608 21.2633 3.84085 21.4906C3.97188 22.3677 3.36484 23.1834 2.49037 23.3144C2.41014 23.3251 2.32991 23.3331 2.25236 23.3331L2.25504 23.3304Z" fill="white"/>
<path d="M13.8009 81H9.85885L6.54686 76.104L4.96286 77.868V81H1.66885V68.382H4.96286V73.854L9.69685 68.382H13.5129L8.83286 73.584L13.8009 81ZM19.4353 71.154C21.0193 71.154 22.2373 71.622 23.0893 72.558C23.9413 73.494 24.3673 74.778 24.3673 76.41C24.3673 76.662 24.3613 76.854 24.3493 76.986H17.5813C17.7373 77.538 18.0073 77.964 18.3913 78.264C18.7753 78.552 19.2433 78.696 19.7953 78.696C20.2153 78.696 20.6173 78.612 21.0013 78.444C21.3973 78.276 21.7573 78.03 22.0813 77.706L23.7553 79.38C23.2513 79.944 22.6393 80.376 21.9193 80.676C21.2113 80.964 20.4073 81.108 19.5073 81.108C18.4633 81.108 17.5513 80.904 16.7713 80.496C15.9913 80.088 15.3913 79.512 14.9713 78.768C14.5633 78.024 14.3593 77.16 14.3593 76.176C14.3593 75.18 14.5693 74.304 14.9893 73.548C15.4093 72.78 16.0033 72.192 16.7713 71.784C17.5393 71.364 18.4273 71.154 19.4353 71.154ZM21.2533 75.276C21.2533 74.712 21.0853 74.262 20.7493 73.926C20.4253 73.578 19.9933 73.404 19.4533 73.404C18.9493 73.404 18.5233 73.572 18.1753 73.908C17.8393 74.244 17.6173 74.7 17.5093 75.276H21.2533ZM30.281 71.154C31.865 71.154 33.083 71.622 33.935 72.558C34.787 73.494 35.213 74.778 35.213 76.41C35.213 76.662 35.207 76.854 35.195 76.986H28.427C28.583 77.538 28.853 77.964 29.237 78.264C29.621 78.552 30.089 78.696 30.641 78.696C31.061 78.696 31.463 78.612 31.847 78.444C32.243 78.276 32.603 78.03 32.927 77.706L34.601 79.38C34.097 79.944 33.485 80.376 32.765 80.676C32.057 80.964 31.253 81.108 30.353 81.108C29.309 81.108 28.397 80.904 27.617 80.496C26.837 80.088 26.237 79.512 25.817 78.768C25.409 78.024 25.205 77.16 25.205 76.176C25.205 75.18 25.415 74.304 25.835 73.548C26.255 72.78 26.849 72.192 27.617 71.784C28.385 71.364 29.273 71.154 30.281 71.154ZM32.099 75.276C32.099 74.712 31.931 74.262 31.595 73.926C31.271 73.578 30.839 73.404 30.299 73.404C29.795 73.404 29.369 73.572 29.021 73.908C28.685 74.244 28.463 74.7 28.355 75.276H32.099ZM42.9987 71.154C43.8987 71.154 44.6907 71.364 45.3747 71.784C46.0587 72.192 46.5867 72.78 46.9587 73.548C47.3427 74.304 47.5347 75.18 47.5347 76.176C47.5347 77.16 47.3487 78.024 46.9767 78.768C46.6167 79.512 46.0947 80.088 45.4107 80.496C44.7387 80.904 43.9587 81.108 43.0707 81.108C42.4587 81.108 41.9007 80.994 41.3967 80.766C40.9047 80.526 40.4847 80.184 40.1367 79.74V84.492H36.9327V71.262H40.1367V72.522C40.8447 71.61 41.7987 71.154 42.9987 71.154ZM42.2067 78.516C42.8307 78.516 43.3347 78.294 43.7187 77.85C44.1147 77.406 44.3127 76.824 44.3127 76.104C44.3127 75.384 44.1147 74.802 43.7187 74.358C43.3347 73.902 42.8307 73.674 42.2067 73.674C41.5947 73.674 41.0967 73.902 40.7127 74.358C40.3287 74.802 40.1367 75.384 40.1367 76.104C40.1367 76.824 40.3287 77.406 40.7127 77.85C41.0967 78.294 41.5947 78.516 42.2067 78.516ZM53.4665 71.154C55.0505 71.154 56.2685 71.622 57.1205 72.558C57.9725 73.494 58.3985 74.778 58.3985 76.41C58.3985 76.662 58.3925 76.854 58.3805 76.986H51.6125C51.7685 77.538 52.0385 77.964 52.4225 78.264C52.8065 78.552 53.2745 78.696 53.8265 78.696C54.2465 78.696 54.6485 78.612 55.0325 78.444C55.4285 78.276 55.7885 78.03 56.1125 77.706L57.7865 79.38C57.2825 79.944 56.6705 80.376 55.9505 80.676C55.2425 80.964 54.4385 81.108 53.5385 81.108C52.4945 81.108 51.5825 80.904 50.8025 80.496C50.0225 80.088 49.4225 79.512 49.0025 78.768C48.5945 78.024 48.3905 77.16 48.3905 76.176C48.3905 75.18 48.6005 74.304 49.0205 73.548C49.4405 72.78 50.0345 72.192 50.8025 71.784C51.5705 71.364 52.4585 71.154 53.4665 71.154ZM55.2845 75.276C55.2845 74.712 55.1165 74.262 54.7805 73.926C54.4565 73.578 54.0245 73.404 53.4845 73.404C52.9805 73.404 52.5545 73.572 52.2065 73.908C51.8705 74.244 51.6485 74.7 51.5405 75.276H55.2845ZM63.2322 72.882C63.5682 72.318 64.0002 71.886 64.5282 71.586C65.0682 71.286 65.6802 71.136 66.3642 71.136V74.07C66.2562 74.058 66.0942 74.052 65.8782 74.052C65.1222 74.052 64.5102 74.232 64.0422 74.592C63.5742 74.94 63.3042 75.42 63.2322 76.032V81H60.0282V71.262H63.2322V72.882Z" fill="white"/>
</svg>
