<svg width="68" height="90" viewBox="0 0 68 90" fill="none" xmlns="http://www.w3.org/2000/svg">
<path d="M62.2614 23.3304C61.3763 23.3304 60.6569 22.611 60.6569 21.7259V9.66781C60.6569 6.77163 58.3009 4.41564 55.4047 4.41564C52.5086 4.41564 50.1526 6.77163 50.1526 9.66781V14.2033C50.1526 15.0884 49.4332 15.8078 48.548 15.8078C47.6629 15.8078 46.9435 15.0884 46.9435 14.2033V9.66781C46.9435 5.00397 50.7382 1.20658 55.4047 1.20658C60.0713 1.20658 63.866 5.00129 63.866 9.66781V21.7259C63.866 22.611 63.1466 23.3304 62.2614 23.3304Z" fill="#82CD47"/>
<path d="M55.3751 16.0352C54.49 16.0352 53.7706 15.3158 53.7706 14.4307C53.7706 12.4518 55.0168 10.66 56.87 9.96741L61.7023 8.16499C62.5313 7.85478 63.4566 8.2773 63.7668 9.10631C64.077 9.93532 63.6545 10.8606 62.8255 11.1708L57.9932 12.9732C57.3888 13.1979 56.9823 13.7835 56.9823 14.428C56.9823 15.3132 56.263 16.0325 55.3778 16.0325L55.3751 16.0352Z" fill="#82CD47"/>
<path d="M55.3751 23.3305C54.49 23.3305 53.7706 22.6111 53.7706 21.7259C53.7706 19.747 55.0168 17.9553 56.87 17.2627L61.7023 15.4602C62.5313 15.15 63.4566 15.5725 63.7668 16.4016C64.077 17.2306 63.6545 18.1558 62.8255 18.4661L57.9932 20.2685C57.3888 20.4931 56.9823 21.0788 56.9823 21.7233C56.9823 22.6084 56.263 23.3278 55.3778 23.3278L55.3751 23.3305Z" fill="#82CD47"/>
<path d="M15.4599 33.5566H21.8486C22.1882 33.5566 22.4396 33.7598 22.6108 34.1636C22.6295 34.2118 22.6402 34.2706 22.6402 34.3481V36.5624C22.6402 36.902 22.4369 37.1587 22.0331 37.3379C21.9583 37.3566 21.8914 37.3673 21.8352 37.3673H18.5058C18.4871 37.3673 18.4764 37.378 18.4764 37.3968V42.911C18.4764 42.9297 18.4844 42.9404 18.5058 42.9404H20.4527C20.5463 42.9404 20.6586 42.9351 20.7923 42.927C21.0276 42.927 21.2496 43.0527 21.4555 43.3068C21.5598 43.4485 21.6106 43.6357 21.6106 43.871V45.6628C21.6106 46.096 21.5117 46.3821 21.3138 46.5239C21.1533 46.6656 20.9795 46.7351 20.7923 46.7351H18.5085C18.4898 46.7458 18.4791 46.7538 18.4791 46.7645V54.9717C18.4791 55.0653 18.4844 55.1776 18.4925 55.3114C18.4925 55.5467 18.3614 55.7686 18.0967 55.9746C17.955 56.0789 17.7731 56.1297 17.5458 56.1297H15.7541C15.3128 56.1297 15.0213 56.0254 14.8796 55.8195C14.7379 55.659 14.6683 55.4905 14.6683 55.3114V40.0095C14.6683 38.6376 14.663 36.7576 14.655 34.3695C14.655 34.1342 14.786 33.9122 15.0507 33.7063C15.1818 33.6127 15.3182 33.5646 15.4599 33.5646V33.5566Z" fill="#82CD47"/>
<path d="M29.1813 33.5566H29.6172C30.3686 33.5566 31.1789 33.8 32.0427 34.2894C33.0482 34.9285 33.7542 35.8164 34.158 36.9556C34.3372 37.4904 34.4254 37.9611 34.4254 38.3649V51.2974C34.4254 52.1157 34.1446 52.9795 33.5804 53.8914C33.4012 54.1535 33.1231 54.469 32.7487 54.8354C31.7432 55.6912 30.6227 56.119 29.3925 56.119C28.0848 56.119 26.9162 55.6457 25.8813 54.6937C25.4026 54.1856 25.0924 53.763 24.9507 53.4234C24.7715 53.1132 24.6297 52.7415 24.5281 52.3083C24.4532 52.1104 24.3971 51.7306 24.3596 51.1664V38.5173C24.3596 37.6348 24.6271 36.7416 25.1646 35.8378C25.785 34.8777 26.6916 34.1931 27.8869 33.7786C28.395 33.6288 28.8256 33.554 29.1839 33.554L29.1813 33.5566ZM28.1811 39.127V50.5353C28.1811 51.1664 28.2105 51.4793 28.2667 51.4793C28.3523 51.7413 28.5288 51.9633 28.8015 52.1425C29.0074 52.2361 29.192 52.2842 29.3524 52.2842H29.4514C29.9113 52.2842 30.275 52.0302 30.5371 51.5221C30.5852 51.3723 30.6066 51.2439 30.6066 51.1423V38.52C30.6066 38.06 30.3526 37.7017 29.8445 37.4476C29.6947 37.3995 29.5637 37.3781 29.4487 37.3781H29.3497C28.8978 37.3781 28.5502 37.6081 28.3068 38.0681C28.2212 38.1429 28.1811 38.4959 28.1811 39.127Z" fill="#82CD47"/>
<path d="M42.1136 33.5566H42.5495C43.3117 33.5566 44.1193 33.7999 44.975 34.2893C45.9806 34.9284 46.6865 35.8163 47.0904 36.9555C47.2695 37.4904 47.3578 37.961 47.3578 38.3648V40.7342C47.3578 41.0925 47.1412 41.3493 46.7079 41.5097C46.6143 41.5284 46.5207 41.5391 46.4271 41.5391H44.4803C43.9909 41.5391 43.6807 41.2984 43.5497 40.8198C43.539 40.7262 43.5363 40.6513 43.5363 40.5951V38.5226C43.5363 38.0626 43.2823 37.7043 42.7742 37.4502C42.6244 37.4021 42.4934 37.3807 42.3784 37.3807H42.2794C41.8275 37.3807 41.4798 37.6107 41.2365 38.0707C41.1509 38.1455 41.1108 38.4985 41.1108 39.1297V50.5379C41.1108 51.169 41.1402 51.4819 41.1964 51.4819C41.2819 51.7439 41.4584 51.9659 41.7312 52.1451C41.9371 52.2387 42.1217 52.2868 42.2821 52.2868H42.3811C42.8517 52.2868 43.2127 52.0328 43.4668 51.5247C43.5149 51.3749 43.5363 51.2465 43.5363 51.1449V47.7888H43.4374C42.948 47.7888 42.6378 47.5481 42.5067 47.0694C42.496 46.9758 42.4934 46.9009 42.4934 46.8448V44.8979C42.4934 44.4086 42.7367 44.0983 43.2261 43.9673C43.3197 43.9593 43.3892 43.9539 43.4374 43.9539H46.4699C46.9032 43.9539 47.1946 44.1786 47.3444 44.6305C47.3524 44.668 47.3578 44.7054 47.3578 44.7428V55.3194C47.3578 55.6777 47.1412 55.9344 46.7079 56.0949C46.6143 56.1136 46.5207 56.1243 46.4271 56.1243H44.4803C44.1995 56.1243 43.9829 56.0441 43.8305 55.8836C43.3144 56.0441 42.8089 56.1243 42.3222 56.1243C41.0145 56.1243 39.8459 55.651 38.811 54.699C38.3323 54.1909 38.0221 53.7683 37.8803 53.4287C37.7012 53.1185 37.5594 52.7468 37.4578 52.3135C37.3829 52.1157 37.3268 51.7359 37.2893 51.1717C37.2974 50.947 37.3027 50.7759 37.3027 50.6636V38.9879C37.3027 38.8649 37.2974 38.7098 37.2893 38.5226C37.2893 37.6401 37.5568 36.7469 38.0943 35.843C38.7147 34.883 39.6213 34.1984 40.8166 33.7839C41.3247 33.6341 41.7553 33.5592 42.1136 33.5592V33.5566Z" fill="#82CD47"/>
<path d="M50.7865 33.5566H53.0007C53.3403 33.5566 53.5971 33.7598 53.7762 34.1636C53.795 34.2385 53.8057 34.3054 53.8057 34.3615V54.9637C53.8057 55.0573 53.811 55.1696 53.819 55.3033C53.819 55.5387 53.688 55.7606 53.4232 55.9665C53.2815 56.0708 53.0997 56.1216 52.8724 56.1216H51.0806C50.6394 56.1216 50.3479 56.0173 50.2062 55.8114C50.0644 55.651 49.9949 55.4825 49.9949 55.3033V34.7011C49.9949 34.6075 49.9896 34.4952 49.9815 34.3615C49.9815 34.1262 50.1126 33.9042 50.3773 33.6983C50.5083 33.6047 50.6447 33.5566 50.7865 33.5566Z" fill="#82CD47"/>
<path d="M56.5494 63.9973H11.6038C8.91887 63.9973 6.61102 62.0826 6.11629 59.4431L1.16631 33.0673C0.858772 31.4307 1.292 29.754 2.35634 28.473C3.42068 27.1921 4.98777 26.454 6.65381 26.454H61.4994C63.1654 26.454 64.7325 27.1894 65.7969 28.473C66.8612 29.7566 67.2944 31.4307 66.9869 33.0673L62.0369 59.4458C61.5422 62.0853 59.2343 64 56.5494 64V63.9973ZM6.65381 29.663C5.94514 29.663 5.27926 29.9759 4.82731 30.5215C4.37537 31.067 4.19085 31.7783 4.32189 32.4763L9.27187 58.8548C9.48313 59.978 10.4646 60.791 11.6065 60.791H56.5494C57.6913 60.791 58.6727 59.978 58.884 58.8548L63.834 32.4763C63.965 31.781 63.7805 31.067 63.3286 30.5215C62.8766 29.9759 62.2107 29.663 61.5021 29.663H6.65381Z" fill="#82CD47"/>
<path d="M47.0959 23.3304C46.5023 23.3304 45.93 22.9988 45.6519 22.4292C43.475 17.9632 39.0385 15.1901 34.0752 15.1901C29.1118 15.1901 24.6753 17.9632 22.4985 22.4292C22.1107 23.2261 21.1507 23.5577 20.3537 23.1673C19.5568 22.7795 19.2252 21.8195 19.6157 21.0225C22.3327 15.4441 27.8763 11.9783 34.0778 11.9783C40.2794 11.9783 45.8203 15.4441 48.54 21.0225C48.9278 21.8195 48.5962 22.7795 47.8019 23.1673C47.5746 23.2769 47.3366 23.3304 47.1013 23.3304H47.0959Z" fill="#82CD47"/>
<path d="M30.0611 11.0451C28.4459 11.0451 26.5899 10.2241 25.0496 8.68375C22.5278 6.16196 21.9368 2.80047 23.7071 1.03013C24.6458 0.0914834 26.0818 -0.224075 27.6436 0.163687C28.9379 0.487268 30.259 1.27081 31.3608 2.37259C33.8825 4.89438 34.4735 8.25588 32.7032 10.0262C32.0159 10.7135 31.088 11.0451 30.0611 11.0451ZM26.3546 3.20695C26.1487 3.20695 26.0203 3.25241 25.9749 3.29787C25.8973 3.37543 25.8251 3.67761 25.9535 4.18839C26.1353 4.91578 26.6327 5.72606 27.3173 6.41334C28.7801 7.87614 30.2055 7.98578 30.4328 7.7558C30.6601 7.52581 30.5505 6.10313 29.0877 4.64033C28.4031 3.95573 27.5928 3.45833 26.8627 3.27648C26.6595 3.22567 26.4883 3.20695 26.3519 3.20695H26.3546Z" fill="#82CD47"/>
<path d="M38.1106 11.0558C37.0597 11.0558 36.129 10.7028 35.4525 10.0262C33.6821 8.25587 34.2731 4.89437 36.7949 2.37259C37.8967 1.27081 39.2151 0.48726 40.5121 0.16368C42.0738 -0.226756 43.5099 0.0888016 44.4485 1.03013C45.3872 1.96878 45.7027 3.40483 45.315 4.96658C44.9914 6.2609 44.2078 7.58197 43.1061 8.68374C42.0043 9.78552 40.6859 10.5691 39.3889 10.8926C38.9503 11.0023 38.5225 11.0558 38.1106 11.0558ZM41.7984 3.20694C41.662 3.20694 41.4908 3.22566 41.2876 3.27647C40.5602 3.45832 39.7499 3.95572 39.0627 4.64032C37.5999 6.10312 37.4929 7.52848 37.7202 7.75579C37.7977 7.83334 38.0999 7.90287 38.6107 7.77718C39.3381 7.59534 40.1484 7.09793 40.8357 6.41333C41.5229 5.72873 42.0177 4.91844 42.1995 4.18838C42.3279 3.6776 42.2557 3.37542 42.1781 3.29787C42.13 3.24973 42.0016 3.20694 41.7984 3.20694Z" fill="#82CD47"/>
<path d="M2.0326 23.3305C1.25173 23.3305 0.564454 22.7582 0.446789 21.9613C0.39063 21.5788 0.361214 21.1884 0.361214 20.8006C0.361214 16.5567 3.75212 13.0909 7.96402 12.9652C8.08703 8.75061 11.5555 5.36237 15.7968 5.36237C20.0381 5.36237 23.6349 8.87897 23.6349 13.2005C23.6349 14.0857 22.9156 14.805 22.0304 14.805C21.1452 14.805 20.4259 14.0857 20.4259 13.2005C20.4259 10.6493 18.3507 8.57143 15.7968 8.57143C13.2429 8.57143 11.1677 10.6466 11.1677 13.2005C11.1677 13.5802 11.2212 13.9734 11.3255 14.3718C11.4699 14.9227 11.3095 15.5084 10.9083 15.9122C10.5045 16.316 9.91887 16.4738 9.36798 16.3293C8.96953 16.2251 8.57374 16.1716 8.19668 16.1716C5.64547 16.1716 3.5676 18.2468 3.5676 20.8006C3.5676 21.0306 3.58365 21.2633 3.61841 21.4906C3.74945 22.3677 3.1424 23.1834 2.26793 23.3144C2.18771 23.3251 2.10748 23.3331 2.02993 23.3331L2.0326 23.3305Z" fill="#82CD47"/>
<path d="M7.99243 70.279C9.53243 70.279 10.8904 70.587 12.0664 71.203C13.2564 71.819 14.1804 72.687 14.8384 73.807C15.4964 74.913 15.8254 76.187 15.8254 77.629C15.8254 79.071 15.4894 80.352 14.8174 81.472C14.1594 82.592 13.2214 83.46 12.0034 84.076C10.7994 84.692 9.41343 85 7.84543 85H1.65043V70.279H7.99243ZM8.09743 81.892C8.83943 81.892 9.49743 81.717 10.0714 81.367C10.6454 81.017 11.0934 80.52 11.4154 79.876C11.7374 79.232 11.8984 78.497 11.8984 77.671C11.8984 76.831 11.7234 76.089 11.3734 75.445C11.0374 74.801 10.5684 74.304 9.96643 73.954C9.36443 73.59 8.67843 73.408 7.90843 73.408H5.49343V81.892H8.09743ZM22.9996 73.513C24.2316 73.513 25.3166 73.758 26.2546 74.248C27.1926 74.724 27.9206 75.403 28.4386 76.285C28.9566 77.153 29.2156 78.161 29.2156 79.309C29.2156 80.471 28.9566 81.493 28.4386 82.375C27.9206 83.243 27.1926 83.922 26.2546 84.412C25.3166 84.888 24.2316 85.126 22.9996 85.126C21.7676 85.126 20.6826 84.888 19.7446 84.412C18.8066 83.922 18.0786 83.243 17.5606 82.375C17.0566 81.493 16.8046 80.471 16.8046 79.309C16.8046 78.161 17.0566 77.153 17.5606 76.285C18.0786 75.403 18.8066 74.724 19.7446 74.248C20.6826 73.758 21.7676 73.513 22.9996 73.513ZM22.9996 76.537C22.2716 76.537 21.6836 76.796 21.2356 77.314C20.7876 77.832 20.5636 78.511 20.5636 79.351C20.5636 80.205 20.7876 80.891 21.2356 81.409C21.6836 81.927 22.2716 82.186 22.9996 82.186C23.7416 82.186 24.3366 81.927 24.7846 81.409C25.2326 80.891 25.4566 80.205 25.4566 79.351C25.4566 78.511 25.2256 77.832 24.7636 77.314C24.3156 76.796 23.7276 76.537 22.9996 76.537ZM38.6172 73.492C39.8632 73.492 40.8572 73.884 41.5992 74.668C42.3552 75.452 42.7332 76.509 42.7332 77.839V85H39.0162V78.91C39.0162 78.266 38.8412 77.762 38.4912 77.398C38.1412 77.02 37.6722 76.831 37.0842 76.831C36.4682 76.845 35.9572 77.048 35.5512 77.44C35.1592 77.832 34.9282 78.35 34.8582 78.994V85H31.1202V73.639H34.8582V75.487C35.2642 74.829 35.7822 74.332 36.4122 73.996C37.0562 73.66 37.7912 73.492 38.6172 73.492ZM50.5415 73.513C51.7735 73.513 52.8585 73.758 53.7965 74.248C54.7345 74.724 55.4625 75.403 55.9805 76.285C56.4985 77.153 56.7575 78.161 56.7575 79.309C56.7575 80.471 56.4985 81.493 55.9805 82.375C55.4625 83.243 54.7345 83.922 53.7965 84.412C52.8585 84.888 51.7735 85.126 50.5415 85.126C49.3095 85.126 48.2245 84.888 47.2865 84.412C46.3485 83.922 45.6205 83.243 45.1025 82.375C44.5985 81.493 44.3465 80.471 44.3465 79.309C44.3465 78.161 44.5985 77.153 45.1025 76.285C45.6205 75.403 46.3485 74.724 47.2865 74.248C48.2245 73.758 49.3095 73.513 50.5415 73.513ZM50.5415 76.537C49.8135 76.537 49.2255 76.796 48.7775 77.314C48.3295 77.832 48.1055 78.511 48.1055 79.351C48.1055 80.205 48.3295 80.891 48.7775 81.409C49.2255 81.927 49.8135 82.186 50.5415 82.186C51.2835 82.186 51.8785 81.927 52.3265 81.409C52.7745 80.891 52.9985 80.205 52.9985 79.351C52.9985 78.511 52.7675 77.832 52.3055 77.314C51.8575 76.796 51.2695 76.537 50.5415 76.537ZM62.4001 75.529C62.7921 74.871 63.2961 74.367 63.9121 74.017C64.5421 73.667 65.2561 73.492 66.0541 73.492V76.915C65.9281 76.901 65.7391 76.894 65.4871 76.894C64.6051 76.894 63.8911 77.104 63.3451 77.524C62.7991 77.93 62.4841 78.49 62.4001 79.204V85H58.6621V73.639H62.4001V75.529Z" fill="#82CD47"/>
</svg>
