<svg width="68" height="80" viewBox="0 0 68 80" fill="none" xmlns="http://www.w3.org/2000/svg">
<path d="M62.2614 23.3304C61.3763 23.3304 60.6569 22.611 60.6569 21.7259V9.66781C60.6569 6.77163 58.3009 4.41564 55.4047 4.41564C52.5085 4.41564 50.1526 6.77163 50.1526 9.66781V14.2033C50.1526 15.0884 49.4332 15.8078 48.548 15.8078C47.6629 15.8078 46.9435 15.0884 46.9435 14.2033V9.66781C46.9435 5.00397 50.7382 1.20658 55.4047 1.20658C60.0712 1.20658 63.866 5.00129 63.866 9.66781V21.7259C63.866 22.611 63.1466 23.3304 62.2614 23.3304Z"/>
<path d="M55.3751 16.0352C54.4899 16.0352 53.7706 15.3158 53.7706 14.4307C53.7706 12.4518 55.0168 10.66 56.87 9.96741L61.7023 8.16499C62.5313 7.85478 63.4566 8.2773 63.7668 9.10631C64.077 9.93532 63.6545 10.8606 62.8255 11.1708L57.9932 12.9732C57.3888 13.1979 56.9823 13.7835 56.9823 14.428C56.9823 15.3132 56.263 16.0325 55.3778 16.0325L55.3751 16.0352Z"/>
<path d="M55.3751 23.3305C54.4899 23.3305 53.7706 22.6111 53.7706 21.7259C53.7706 19.747 55.0168 17.9553 56.87 17.2627L61.7023 15.4602C62.5313 15.15 63.4566 15.5725 63.7668 16.4016C64.077 17.2306 63.6545 18.1558 62.8255 18.4661L57.9932 20.2685C57.3888 20.4931 56.9823 21.0788 56.9823 21.7233C56.9823 22.6084 56.263 23.3278 55.3778 23.3278L55.3751 23.3305Z"/>
<path d="M15.4599 33.5566H21.8486C22.1882 33.5566 22.4396 33.7598 22.6108 34.1636C22.6295 34.2118 22.6402 34.2706 22.6402 34.3481V36.5624C22.6402 36.902 22.4369 37.1587 22.0331 37.3379C21.9582 37.3566 21.8914 37.3673 21.8352 37.3673H18.5058C18.4871 37.3673 18.4764 37.378 18.4764 37.3968V42.911C18.4764 42.9297 18.4844 42.9404 18.5058 42.9404H20.4527C20.5463 42.9404 20.6586 42.9351 20.7923 42.927C21.0276 42.927 21.2496 43.0527 21.4555 43.3068C21.5598 43.4485 21.6106 43.6357 21.6106 43.871V45.6628C21.6106 46.096 21.5117 46.3821 21.3138 46.5239C21.1533 46.6656 20.9795 46.7351 20.7923 46.7351H18.5085C18.4898 46.7458 18.4791 46.7538 18.4791 46.7645V54.9717C18.4791 55.0653 18.4844 55.1776 18.4925 55.3114C18.4925 55.5467 18.3614 55.7686 18.0967 55.9746C17.9549 56.0789 17.7731 56.1297 17.5458 56.1297H15.7541C15.3128 56.1297 15.0213 56.0254 14.8796 55.8195C14.7379 55.659 14.6683 55.4905 14.6683 55.3114V40.0095C14.6683 38.6376 14.663 36.7576 14.655 34.3695C14.655 34.1342 14.786 33.9122 15.0507 33.7063C15.1818 33.6127 15.3182 33.5646 15.4599 33.5646V33.5566Z"/>
<path d="M29.1813 33.5566H29.6172C30.3686 33.5566 31.1789 33.8 32.0427 34.2894C33.0482 34.9285 33.7542 35.8164 34.158 36.9556C34.3372 37.4904 34.4254 37.9611 34.4254 38.3649V51.2974C34.4254 52.1157 34.1446 52.9795 33.5804 53.8914C33.4012 54.1535 33.1231 54.469 32.7487 54.8354C31.7432 55.6912 30.6227 56.119 29.3925 56.119C28.0848 56.119 26.9162 55.6457 25.8813 54.6937C25.4026 54.1856 25.0924 53.763 24.9507 53.4234C24.7715 53.1132 24.6297 52.7415 24.5281 52.3083C24.4532 52.1104 24.3971 51.7306 24.3596 51.1664V38.5173C24.3596 37.6348 24.6271 36.7416 25.1646 35.8378C25.785 34.8777 26.6916 34.1931 27.8869 33.7786C28.395 33.6288 28.8256 33.554 29.1839 33.554L29.1813 33.5566ZM28.1811 39.127V50.5353C28.1811 51.1664 28.2105 51.4793 28.2667 51.4793C28.3523 51.7413 28.5288 51.9633 28.8015 52.1425C29.0074 52.2361 29.192 52.2842 29.3524 52.2842H29.4514C29.9113 52.2842 30.275 52.0302 30.5371 51.5221C30.5852 51.3723 30.6066 51.2439 30.6066 51.1423V38.52C30.6066 38.06 30.3526 37.7017 29.8445 37.4476C29.6947 37.3995 29.5637 37.3781 29.4487 37.3781H29.3497C28.8978 37.3781 28.5502 37.6081 28.3068 38.0681C28.2212 38.1429 28.1811 38.4959 28.1811 39.127Z"/>
<path d="M42.1136 33.5566H42.5495C43.3117 33.5566 44.1193 33.7999 44.975 34.2893C45.9806 34.9284 46.6865 35.8163 47.0904 36.9555C47.2695 37.4904 47.3578 37.961 47.3578 38.3648V40.7342C47.3578 41.0925 47.1412 41.3493 46.7079 41.5097C46.6143 41.5284 46.5207 41.5391 46.4271 41.5391H44.4803C43.9909 41.5391 43.6807 41.2984 43.5497 40.8198C43.539 40.7262 43.5363 40.6513 43.5363 40.5951V38.5226C43.5363 38.0626 43.2823 37.7043 42.7742 37.4502C42.6244 37.4021 42.4934 37.3807 42.3784 37.3807H42.2794C41.8275 37.3807 41.4798 37.6107 41.2365 38.0707C41.1509 38.1455 41.1108 38.4985 41.1108 39.1297V50.5379C41.1108 51.169 41.1402 51.4819 41.1964 51.4819C41.2819 51.7439 41.4584 51.9659 41.7312 52.1451C41.9371 52.2387 42.1217 52.2868 42.2821 52.2868H42.3811C42.8517 52.2868 43.2127 52.0328 43.4668 51.5247C43.5149 51.3749 43.5363 51.2465 43.5363 51.1449V47.7888H43.4374C42.948 47.7888 42.6378 47.5481 42.5067 47.0694C42.496 46.9758 42.4934 46.9009 42.4934 46.8448V44.8979C42.4934 44.4086 42.7367 44.0983 43.2261 43.9673C43.3197 43.9593 43.3892 43.9539 43.4374 43.9539H46.4699C46.9032 43.9539 47.1946 44.1786 47.3444 44.6305C47.3524 44.668 47.3578 44.7054 47.3578 44.7428V55.3194C47.3578 55.6777 47.1412 55.9344 46.7079 56.0949C46.6143 56.1136 46.5207 56.1243 46.4271 56.1243H44.4803C44.1995 56.1243 43.9829 56.0441 43.8305 55.8836C43.3144 56.0441 42.8089 56.1243 42.3222 56.1243C41.0145 56.1243 39.8459 55.651 38.811 54.699C38.3323 54.1909 38.0221 53.7683 37.8803 53.4287C37.7012 53.1185 37.5594 52.7468 37.4578 52.3135C37.3829 52.1157 37.3268 51.7359 37.2893 51.1717C37.2974 50.947 37.3027 50.7759 37.3027 50.6636V38.9879C37.3027 38.8649 37.2974 38.7098 37.2893 38.5226C37.2893 37.6401 37.5568 36.7469 38.0943 35.843C38.7147 34.883 39.6213 34.1984 40.8166 33.7839C41.3247 33.6341 41.7553 33.5592 42.1136 33.5592V33.5566Z"/>
<path d="M50.7865 33.5566H53.0007C53.3403 33.5566 53.5971 33.7598 53.7762 34.1636C53.795 34.2385 53.8057 34.3054 53.8057 34.3615V54.9637C53.8057 55.0573 53.811 55.1696 53.819 55.3033C53.819 55.5387 53.688 55.7606 53.4232 55.9665C53.2815 56.0708 53.0997 56.1216 52.8724 56.1216H51.0806C50.6394 56.1216 50.3479 56.0173 50.2062 55.8114C50.0644 55.651 49.9949 55.4825 49.9949 55.3033V34.7011C49.9949 34.6075 49.9895 34.4952 49.9815 34.3615C49.9815 34.1262 50.1126 33.9042 50.3773 33.6983C50.5083 33.6047 50.6447 33.5566 50.7865 33.5566Z"/>
<path d="M56.5494 63.9973H11.6038C8.91886 63.9973 6.61101 62.0826 6.11628 59.4431L1.1663 33.0673C0.858761 31.4307 1.29198 29.754 2.35632 28.473C3.42066 27.1921 4.98776 26.454 6.6538 26.454H61.4994C63.1654 26.454 64.7325 27.1894 65.7968 28.473C66.8612 29.7566 67.2944 31.4307 66.9869 33.0673L62.0369 59.4458C61.5422 62.0853 59.2343 64 56.5494 64V63.9973ZM6.6538 29.663C5.94513 29.663 5.27925 29.9759 4.8273 30.5215C4.37536 31.067 4.19084 31.7783 4.32188 32.4763L9.27186 58.8548C9.48312 59.978 10.4646 60.791 11.6065 60.791H56.5494C57.6913 60.791 58.6727 59.978 58.884 58.8548L63.834 32.4763C63.965 31.781 63.7805 31.067 63.3285 30.5215C62.8766 29.9759 62.2107 29.663 61.502 29.663H6.6538Z"/>
<path d="M47.0959 23.3304C46.5023 23.3304 45.93 22.9988 45.6519 22.4292C43.475 17.9632 39.0385 15.1901 34.0752 15.1901C29.1118 15.1901 24.6753 17.9632 22.4985 22.4292C22.1107 23.2261 21.1507 23.5577 20.3537 23.1673C19.5568 22.7795 19.2252 21.8195 19.6157 21.0225C22.3327 15.4441 27.8763 11.9783 34.0778 11.9783C40.2793 11.9783 45.8203 15.4441 48.54 21.0225C48.9278 21.8195 48.5962 22.7795 47.8019 23.1673C47.5746 23.2769 47.3366 23.3304 47.1013 23.3304H47.0959Z"/>
<path d="M30.0611 11.0451C28.4459 11.0451 26.5899 10.2241 25.0496 8.68375C22.5278 6.16196 21.9368 2.80047 23.7071 1.03013C24.6458 0.0914834 26.0818 -0.224075 27.6436 0.163687C28.9379 0.487268 30.259 1.27081 31.3608 2.37259C33.8825 4.89438 34.4735 8.25588 32.7032 10.0262C32.0159 10.7135 31.088 11.0451 30.0611 11.0451ZM26.3546 3.20695C26.1487 3.20695 26.0203 3.25241 25.9749 3.29787C25.8973 3.37543 25.8251 3.67761 25.9535 4.18839C26.1353 4.91578 26.6327 5.72606 27.3173 6.41334C28.7801 7.87614 30.2055 7.98578 30.4328 7.7558C30.6601 7.52581 30.5505 6.10313 29.0877 4.64033C28.4031 3.95573 27.5928 3.45833 26.8627 3.27648C26.6595 3.22567 26.4883 3.20695 26.3519 3.20695H26.3546Z"/>
<path d="M38.1106 11.0558C37.0596 11.0558 36.129 10.7028 35.4524 10.0262C33.6821 8.25587 34.2731 4.89437 36.7949 2.37259C37.8967 1.27081 39.2151 0.48726 40.5121 0.16368C42.0738 -0.226756 43.5099 0.0888016 44.4485 1.03013C45.3872 1.96878 45.7027 3.40483 45.315 4.96658C44.9914 6.2609 44.2078 7.58197 43.1061 8.68374C42.0043 9.78552 40.6859 10.5691 39.3889 10.8926C38.9503 11.0023 38.5224 11.0558 38.1106 11.0558ZM41.7984 3.20694C41.662 3.20694 41.4908 3.22566 41.2876 3.27647C40.5602 3.45832 39.7499 3.95572 39.0626 4.64032C37.5998 6.10312 37.4929 7.52848 37.7202 7.75579C37.7977 7.83334 38.0999 7.90287 38.6107 7.77718C39.3381 7.59534 40.1484 7.09793 40.8356 6.41333C41.5229 5.72873 42.0176 4.91844 42.1995 4.18838C42.3279 3.6776 42.2557 3.37542 42.1781 3.29787C42.13 3.24973 42.0016 3.20694 41.7984 3.20694Z"/>
<path d="M2.03259 23.3305C1.25172 23.3305 0.564447 22.7582 0.446781 21.9613C0.390622 21.5788 0.361206 21.1884 0.361206 20.8006C0.361206 16.5567 3.75212 13.0909 7.96401 12.9652C8.08703 8.75061 11.5555 5.36237 15.7968 5.36237C20.0381 5.36237 23.6349 8.87897 23.6349 13.2005C23.6349 14.0857 22.9156 14.805 22.0304 14.805C21.1452 14.805 20.4259 14.0857 20.4259 13.2005C20.4259 10.6493 18.3507 8.57143 15.7968 8.57143C13.2429 8.57143 11.1677 10.6466 11.1677 13.2005C11.1677 13.5802 11.2212 13.9734 11.3255 14.3718C11.4699 14.9227 11.3095 15.5084 10.9083 15.9122C10.5045 16.316 9.91887 16.4738 9.36798 16.3293C8.96952 16.2251 8.57373 16.1716 8.19667 16.1716C5.64546 16.1716 3.56759 18.2468 3.56759 20.8006C3.56759 21.0306 3.58364 21.2633 3.61841 21.4906C3.74944 22.3677 3.14239 23.1834 2.26792 23.3144C2.1877 23.3251 2.10747 23.3331 2.02992 23.3331L2.03259 23.3305Z"/>
<path d="M10.0504 67.9L6.11143 77H4.03143L0.105427 67.9H2.38043L5.14943 74.4L7.95743 67.9H10.0504ZM13.4747 77.104C12.738 77.104 12.075 76.9523 11.4857 76.649C10.905 76.337 10.45 75.908 10.1207 75.362C9.79138 74.816 9.62671 74.1963 9.62671 73.503C9.62671 72.8097 9.79138 72.19 10.1207 71.644C10.45 71.098 10.905 70.6733 11.4857 70.37C12.075 70.058 12.738 69.902 13.4747 69.902C14.2114 69.902 14.87 70.058 15.4507 70.37C16.0314 70.6733 16.4864 71.098 16.8157 71.644C17.145 72.19 17.3097 72.8097 17.3097 73.503C17.3097 74.1963 17.145 74.816 16.8157 75.362C16.4864 75.908 16.0314 76.337 15.4507 76.649C14.87 76.9523 14.2114 77.104 13.4747 77.104ZM13.4747 75.44C13.9947 75.44 14.4194 75.2667 14.7487 74.92C15.0867 74.5647 15.2557 74.0923 15.2557 73.503C15.2557 72.9137 15.0867 72.4457 14.7487 72.099C14.4194 71.7437 13.9947 71.566 13.4747 71.566C12.9547 71.566 12.5257 71.7437 12.1877 72.099C11.8497 72.4457 11.6807 72.9137 11.6807 73.503C11.6807 74.0923 11.8497 74.5647 12.1877 74.92C12.5257 75.2667 12.9547 75.44 13.4747 75.44ZM18.6653 67.354H20.6933V77H18.6653V67.354ZM29.6214 70.006V77H27.6974V76.168C27.4288 76.4713 27.1081 76.7053 26.7354 76.87C26.3628 77.026 25.9598 77.104 25.5264 77.104C24.6078 77.104 23.8798 76.8397 23.3424 76.311C22.8051 75.7823 22.5364 74.998 22.5364 73.958V70.006H24.5644V73.659C24.5644 74.7857 25.0368 75.349 25.9814 75.349C26.4668 75.349 26.8568 75.193 27.1514 74.881C27.4461 74.5603 27.5934 74.088 27.5934 73.464V70.006H29.6214ZM35.7512 69.902C36.6179 69.902 37.3156 70.162 37.8442 70.682C38.3816 71.202 38.6502 71.9733 38.6502 72.996V77H36.6222V73.308C36.6222 72.7533 36.5009 72.3417 36.2582 72.073C36.0156 71.7957 35.6646 71.657 35.2052 71.657C34.6939 71.657 34.2866 71.8173 33.9832 72.138C33.6799 72.45 33.5282 72.918 33.5282 73.542V77H31.5002V70.006H33.4372V70.825C33.7059 70.5303 34.0396 70.305 34.4382 70.149C34.8369 69.9843 35.2746 69.902 35.7512 69.902ZM44.9995 76.662C44.8002 76.8093 44.5532 76.922 44.2585 77C43.9725 77.0693 43.6692 77.104 43.3485 77.104C42.5165 77.104 41.8708 76.8917 41.4115 76.467C40.9608 76.0423 40.7355 75.4183 40.7355 74.595V71.722H39.6565V70.162H40.7355V68.459H42.7635V70.162H44.5055V71.722H42.7635V74.569C42.7635 74.8637 42.8372 75.0933 42.9845 75.258C43.1405 75.414 43.3572 75.492 43.6345 75.492C43.9552 75.492 44.2282 75.4053 44.4535 75.232L44.9995 76.662ZM52.7731 73.529C52.7731 73.555 52.7601 73.737 52.7341 74.075H47.4431C47.5384 74.5083 47.7638 74.8507 48.1191 75.102C48.4744 75.3533 48.9164 75.479 49.4451 75.479C49.8091 75.479 50.1298 75.427 50.4071 75.323C50.6931 75.2103 50.9574 75.037 51.2001 74.803L52.2791 75.973C51.6204 76.727 50.6584 77.104 49.3931 77.104C48.6044 77.104 47.9068 76.9523 47.3001 76.649C46.6934 76.337 46.2254 75.908 45.8961 75.362C45.5668 74.816 45.4021 74.1963 45.4021 73.503C45.4021 72.8183 45.5624 72.203 45.8831 71.657C46.2124 71.1023 46.6588 70.6733 47.2221 70.37C47.7941 70.058 48.4311 69.902 49.1331 69.902C49.8178 69.902 50.4374 70.0493 50.9921 70.344C51.5468 70.6387 51.9801 71.0633 52.2921 71.618C52.6128 72.164 52.7731 72.801 52.7731 73.529ZM49.1461 71.436C48.6868 71.436 48.3011 71.566 47.9891 71.826C47.6771 72.086 47.4864 72.4413 47.4171 72.892H50.8621C50.7928 72.45 50.6021 72.099 50.2901 71.839C49.9781 71.5703 49.5968 71.436 49.1461 71.436ZM60.9743 73.529C60.9743 73.555 60.9613 73.737 60.9353 74.075H55.6443C55.7396 74.5083 55.9649 74.8507 56.3203 75.102C56.6756 75.3533 57.1176 75.479 57.6463 75.479C58.0103 75.479 58.3309 75.427 58.6083 75.323C58.8943 75.2103 59.1586 75.037 59.4013 74.803L60.4803 75.973C59.8216 76.727 58.8596 77.104 57.5943 77.104C56.8056 77.104 56.1079 76.9523 55.5013 76.649C54.8946 76.337 54.4266 75.908 54.0973 75.362C53.7679 74.816 53.6033 74.1963 53.6033 73.503C53.6033 72.8183 53.7636 72.203 54.0843 71.657C54.4136 71.1023 54.8599 70.6733 55.4233 70.37C55.9953 70.058 56.6323 69.902 57.3343 69.902C58.0189 69.902 58.6386 70.0493 59.1933 70.344C59.7479 70.6387 60.1813 71.0633 60.4933 71.618C60.8139 72.164 60.9743 72.801 60.9743 73.529ZM57.3473 71.436C56.8879 71.436 56.5023 71.566 56.1903 71.826C55.8783 72.086 55.6876 72.4413 55.6183 72.892H59.0633C58.9939 72.45 58.8033 72.099 58.4913 71.839C58.1793 71.5703 57.7979 71.436 57.3473 71.436ZM64.2614 70.929C64.5041 70.591 64.8291 70.3353 65.2364 70.162C65.6524 69.9887 66.1291 69.902 66.6664 69.902V71.774C66.4411 71.7567 66.2894 71.748 66.2114 71.748C65.6308 71.748 65.1758 71.9127 64.8464 72.242C64.5171 72.5627 64.3524 73.048 64.3524 73.698V77H62.3244V70.006H64.2614V70.929Z"/>
</svg>
