<svg width="70" height="90" viewBox="0 0 70 90" fill="none" xmlns="http://www.w3.org/2000/svg">
<path d="M63.2614 23.3304C62.3763 23.3304 61.6569 22.611 61.6569 21.7259V9.66781C61.6569 6.77163 59.3009 4.41564 56.4047 4.41564C53.5086 4.41564 51.1526 6.77163 51.1526 9.66781V14.2033C51.1526 15.0884 50.4332 15.8078 49.548 15.8078C48.6629 15.8078 47.9435 15.0884 47.9435 14.2033V9.66781C47.9435 5.00397 51.7382 1.20658 56.4047 1.20658C61.0713 1.20658 64.866 5.00129 64.866 9.66781V21.7259C64.866 22.611 64.1466 23.3304 63.2614 23.3304Z"/>
<path d="M56.3751 16.0352C55.49 16.0352 54.7706 15.3158 54.7706 14.4307C54.7706 12.4518 56.0168 10.66 57.87 9.96741L62.7023 8.16499C63.5313 7.85478 64.4566 8.2773 64.7668 9.10631C65.077 9.93532 64.6545 10.8606 63.8255 11.1708L58.9932 12.9732C58.3888 13.1979 57.9823 13.7835 57.9823 14.428C57.9823 15.3132 57.263 16.0325 56.3778 16.0325L56.3751 16.0352Z"/>
<path d="M56.3751 23.3305C55.49 23.3305 54.7706 22.6111 54.7706 21.7259C54.7706 19.747 56.0168 17.9553 57.87 17.2627L62.7023 15.4602C63.5313 15.15 64.4566 15.5725 64.7668 16.4016C65.077 17.2306 64.6545 18.1558 63.8255 18.4661L58.9932 20.2685C58.3888 20.4931 57.9823 21.0788 57.9823 21.7233C57.9823 22.6084 57.263 23.3278 56.3778 23.3278L56.3751 23.3305Z"/>
<path d="M16.4599 33.5566H22.8486C23.1882 33.5566 23.4396 33.7598 23.6108 34.1636C23.6295 34.2118 23.6402 34.2706 23.6402 34.3481V36.5624C23.6402 36.902 23.4369 37.1587 23.0331 37.3379C22.9583 37.3566 22.8914 37.3673 22.8353 37.3673H19.5058C19.4871 37.3673 19.4764 37.378 19.4764 37.3968V42.911C19.4764 42.9297 19.4845 42.9404 19.5058 42.9404H21.4527C21.5463 42.9404 21.6586 42.9351 21.7923 42.927C22.0276 42.927 22.2496 43.0527 22.4555 43.3068C22.5598 43.4485 22.6106 43.6357 22.6106 43.871V45.6628C22.6106 46.096 22.5117 46.3821 22.3138 46.5239C22.1533 46.6656 21.9795 46.7351 21.7923 46.7351H19.5085C19.4898 46.7458 19.4791 46.7538 19.4791 46.7645V54.9717C19.4791 55.0653 19.4845 55.1776 19.4925 55.3114C19.4925 55.5467 19.3614 55.7686 19.0967 55.9746C18.955 56.0789 18.7731 56.1297 18.5458 56.1297H16.7541C16.3128 56.1297 16.0213 56.0254 15.8796 55.8195C15.7379 55.659 15.6683 55.4905 15.6683 55.3114V40.0095C15.6683 38.6376 15.663 36.7576 15.655 34.3695C15.655 34.1342 15.786 33.9122 16.0508 33.7063C16.1818 33.6127 16.3182 33.5646 16.4599 33.5646V33.5566Z"/>
<path d="M30.1813 33.5566H30.6172C31.3686 33.5566 32.1789 33.8 33.0427 34.2894C34.0482 34.9285 34.7542 35.8164 35.158 36.9556C35.3372 37.4904 35.4254 37.9611 35.4254 38.3649V51.2974C35.4254 52.1157 35.1446 52.9795 34.5804 53.8914C34.4012 54.1535 34.1231 54.469 33.7487 54.8354C32.7432 55.6912 31.6227 56.119 30.3925 56.119C29.0848 56.119 27.9162 55.6457 26.8813 54.6937C26.4026 54.1856 26.0924 53.763 25.9507 53.4234C25.7715 53.1132 25.6297 52.7415 25.5281 52.3083C25.4532 52.1104 25.3971 51.7306 25.3596 51.1664V38.5173C25.3596 37.6348 25.6271 36.7416 26.1646 35.8378C26.785 34.8777 27.6916 34.1931 28.8869 33.7786C29.395 33.6288 29.8256 33.554 30.1839 33.554L30.1813 33.5566ZM29.1811 39.127V50.5353C29.1811 51.1664 29.2105 51.4793 29.2667 51.4793C29.3523 51.7413 29.5288 51.9633 29.8015 52.1425C30.0074 52.2361 30.192 52.2842 30.3524 52.2842H30.4514C30.9113 52.2842 31.275 52.0302 31.5371 51.5221C31.5852 51.3723 31.6066 51.2439 31.6066 51.1423V38.52C31.6066 38.06 31.3526 37.7017 30.8445 37.4476C30.6947 37.3995 30.5637 37.3781 30.4487 37.3781H30.3497C29.8978 37.3781 29.5502 37.6081 29.3068 38.0681C29.2212 38.1429 29.1811 38.4959 29.1811 39.127Z"/>
<path d="M43.1136 33.5566H43.5495C44.3117 33.5566 45.1193 33.7999 45.975 34.2893C46.9806 34.9284 47.6865 35.8163 48.0904 36.9555C48.2695 37.4904 48.3578 37.961 48.3578 38.3648V40.7342C48.3578 41.0925 48.1412 41.3493 47.7079 41.5097C47.6143 41.5284 47.5207 41.5391 47.4271 41.5391H45.4803C44.9909 41.5391 44.6807 41.2984 44.5497 40.8198C44.539 40.7262 44.5363 40.6513 44.5363 40.5951V38.5226C44.5363 38.0626 44.2823 37.7043 43.7742 37.4502C43.6244 37.4021 43.4934 37.3807 43.3784 37.3807H43.2794C42.8275 37.3807 42.4798 37.6107 42.2365 38.0707C42.1509 38.1455 42.1108 38.4985 42.1108 39.1297V50.5379C42.1108 51.169 42.1402 51.4819 42.1964 51.4819C42.2819 51.7439 42.4584 51.9659 42.7312 52.1451C42.9371 52.2387 43.1217 52.2868 43.2821 52.2868H43.3811C43.8517 52.2868 44.2127 52.0328 44.4668 51.5247C44.5149 51.3749 44.5363 51.2465 44.5363 51.1449V47.7888H44.4374C43.948 47.7888 43.6378 47.5481 43.5067 47.0694C43.496 46.9758 43.4934 46.9009 43.4934 46.8448V44.8979C43.4934 44.4086 43.7367 44.0983 44.2261 43.9673C44.3197 43.9593 44.3892 43.9539 44.4374 43.9539H47.4699C47.9032 43.9539 48.1946 44.1786 48.3444 44.6305C48.3524 44.668 48.3578 44.7054 48.3578 44.7428V55.3194C48.3578 55.6777 48.1412 55.9344 47.7079 56.0949C47.6143 56.1136 47.5207 56.1243 47.4271 56.1243H45.4803C45.1995 56.1243 44.9829 56.0441 44.8305 55.8836C44.3144 56.0441 43.8089 56.1243 43.3222 56.1243C42.0145 56.1243 40.8459 55.651 39.811 54.699C39.3323 54.1909 39.0221 53.7683 38.8803 53.4287C38.7012 53.1185 38.5594 52.7468 38.4578 52.3135C38.3829 52.1157 38.3268 51.7359 38.2893 51.1717C38.2974 50.947 38.3027 50.7759 38.3027 50.6636V38.9879C38.3027 38.8649 38.2974 38.7098 38.2893 38.5226C38.2893 37.6401 38.5568 36.7469 39.0943 35.843C39.7147 34.883 40.6213 34.1984 41.8166 33.7839C42.3247 33.6341 42.7553 33.5592 43.1136 33.5592V33.5566Z"/>
<path d="M51.7865 33.5566H54.0007C54.3403 33.5566 54.5971 33.7598 54.7762 34.1636C54.795 34.2385 54.8057 34.3054 54.8057 34.3615V54.9637C54.8057 55.0573 54.811 55.1696 54.819 55.3033C54.819 55.5387 54.688 55.7606 54.4232 55.9665C54.2815 56.0708 54.0997 56.1216 53.8724 56.1216H52.0806C51.6394 56.1216 51.3479 56.0173 51.2062 55.8114C51.0644 55.651 50.9949 55.4825 50.9949 55.3033V34.7011C50.9949 34.6075 50.9896 34.4952 50.9815 34.3615C50.9815 34.1262 51.1126 33.9042 51.3773 33.6983C51.5083 33.6047 51.6447 33.5566 51.7865 33.5566Z"/>
<path d="M57.5494 63.9973H12.6038C9.91887 63.9973 7.61102 62.0826 7.11629 59.4431L2.16631 33.0673C1.85877 31.4307 2.292 29.754 3.35634 28.473C4.42067 27.1921 5.98777 26.454 7.65381 26.454H62.4994C64.1654 26.454 65.7325 27.1894 66.7969 28.473C67.8612 29.7566 68.2944 31.4307 67.9869 33.0673L63.0369 59.4458C62.5422 62.0853 60.2343 64 57.5494 64V63.9973ZM7.65381 29.663C6.94514 29.663 6.27926 29.9759 5.82731 30.5215C5.37537 31.067 5.19085 31.7783 5.32189 32.4763L10.2719 58.8548C10.4831 59.978 11.4646 60.791 12.6065 60.791H57.5494C58.6913 60.791 59.6727 59.978 59.884 58.8548L64.834 32.4763C64.965 31.781 64.7805 31.067 64.3286 30.5215C63.8766 29.9759 63.2107 29.663 62.5021 29.663H7.65381Z"/>
<path d="M48.0959 23.3304C47.5023 23.3304 46.93 22.9988 46.6519 22.4292C44.475 17.9632 40.0385 15.1901 35.0752 15.1901C30.1118 15.1901 25.6753 17.9632 23.4985 22.4292C23.1107 23.2261 22.1507 23.5577 21.3537 23.1673C20.5568 22.7795 20.2252 21.8195 20.6157 21.0225C23.3327 15.4441 28.8763 11.9783 35.0778 11.9783C41.2794 11.9783 46.8203 15.4441 49.54 21.0225C49.9278 21.8195 49.5962 22.7795 48.8019 23.1673C48.5746 23.2769 48.3366 23.3304 48.1013 23.3304H48.0959Z"/>
<path d="M31.0611 11.0451C29.4459 11.0451 27.5899 10.2241 26.0496 8.68375C23.5278 6.16196 22.9368 2.80047 24.7071 1.03013C25.6458 0.0914834 27.0818 -0.224075 28.6436 0.163687C29.9379 0.487268 31.259 1.27081 32.3608 2.37259C34.8825 4.89438 35.4735 8.25588 33.7032 10.0262C33.0159 10.7135 32.088 11.0451 31.0611 11.0451ZM27.3546 3.20695C27.1487 3.20695 27.0203 3.25241 26.9749 3.29787C26.8973 3.37543 26.8251 3.67761 26.9535 4.18839C27.1353 4.91578 27.6327 5.72606 28.3173 6.41334C29.7801 7.87614 31.2055 7.98578 31.4328 7.7558C31.6601 7.52581 31.5505 6.10313 30.0877 4.64033C29.4031 3.95573 28.5928 3.45833 27.8627 3.27648C27.6595 3.22567 27.4883 3.20695 27.3519 3.20695H27.3546Z"/>
<path d="M39.1106 11.0558C38.0597 11.0558 37.129 10.7028 36.4525 10.0262C34.6821 8.25587 35.2731 4.89437 37.7949 2.37259C38.8967 1.27081 40.2151 0.48726 41.5121 0.16368C43.0738 -0.226756 44.5099 0.0888016 45.4485 1.03013C46.3872 1.96878 46.7027 3.40483 46.315 4.96658C45.9914 6.2609 45.2078 7.58197 44.1061 8.68374C43.0043 9.78552 41.6859 10.5691 40.3889 10.8926C39.9503 11.0023 39.5225 11.0558 39.1106 11.0558ZM42.7984 3.20694C42.662 3.20694 42.4908 3.22566 42.2876 3.27647C41.5602 3.45832 40.7499 3.95572 40.0627 4.64032C38.5999 6.10312 38.4929 7.52848 38.7202 7.75579C38.7977 7.83334 39.0999 7.90287 39.6107 7.77718C40.3381 7.59534 41.1484 7.09793 41.8357 6.41333C42.5229 5.72873 43.0177 4.91844 43.1995 4.18838C43.3279 3.6776 43.2557 3.37542 43.1781 3.29787C43.13 3.24973 43.0016 3.20694 42.7984 3.20694Z"/>
<path d="M3.0326 23.3305C2.25173 23.3305 1.56445 22.7582 1.44679 21.9613C1.39063 21.5788 1.36121 21.1884 1.36121 20.8006C1.36121 16.5567 4.75212 13.0909 8.96402 12.9652C9.08703 8.75061 12.5555 5.36237 16.7968 5.36237C21.0381 5.36237 24.6349 8.87897 24.6349 13.2005C24.6349 14.0857 23.9156 14.805 23.0304 14.805C22.1452 14.805 21.4259 14.0857 21.4259 13.2005C21.4259 10.6493 19.3507 8.57143 16.7968 8.57143C14.2429 8.57143 12.1677 10.6466 12.1677 13.2005C12.1677 13.5802 12.2212 13.9734 12.3255 14.3718C12.4699 14.9227 12.3095 15.5084 11.9083 15.9122C11.5045 16.316 10.9189 16.4738 10.368 16.3293C9.96953 16.2251 9.57374 16.1716 9.19668 16.1716C6.64547 16.1716 4.5676 18.2468 4.5676 20.8006C4.5676 21.0306 4.58365 21.2633 4.61841 21.4906C4.74945 22.3677 4.1424 23.1834 3.26793 23.3144C3.18771 23.3251 3.10748 23.3331 3.02993 23.3331L3.0326 23.3305Z"/>
<path d="M1.96543 70.3H8.64343C10.2394 70.3 11.6464 70.608 12.8644 71.224C14.0964 71.826 15.0484 72.68 15.7204 73.786C16.4064 74.892 16.7494 76.18 16.7494 77.65C16.7494 79.12 16.4064 80.408 15.7204 81.514C15.0484 82.62 14.0964 83.481 12.8644 84.097C11.6464 84.699 10.2394 85 8.64343 85H1.96543V70.3ZM8.47543 82.207C9.94543 82.207 11.1144 81.801 11.9824 80.989C12.8644 80.163 13.3054 79.05 13.3054 77.65C13.3054 76.25 12.8644 75.144 11.9824 74.332C11.1144 73.506 9.94543 73.093 8.47543 73.093H5.36743V82.207H8.47543ZM24.46 85.168C23.27 85.168 22.199 84.923 21.247 84.433C20.309 83.929 19.574 83.236 19.042 82.354C18.51 81.472 18.244 80.471 18.244 79.351C18.244 78.231 18.51 77.23 19.042 76.348C19.574 75.466 20.309 74.78 21.247 74.29C22.199 73.786 23.27 73.534 24.46 73.534C25.65 73.534 26.714 73.786 27.652 74.29C28.59 74.78 29.325 75.466 29.857 76.348C30.389 77.23 30.655 78.231 30.655 79.351C30.655 80.471 30.389 81.472 29.857 82.354C29.325 83.236 28.59 83.929 27.652 84.433C26.714 84.923 25.65 85.168 24.46 85.168ZM24.46 82.48C25.3 82.48 25.986 82.2 26.518 81.64C27.064 81.066 27.337 80.303 27.337 79.351C27.337 78.399 27.064 77.643 26.518 77.083C25.986 76.509 25.3 76.222 24.46 76.222C23.62 76.222 22.927 76.509 22.381 77.083C21.835 77.643 21.562 78.399 21.562 79.351C21.562 80.303 21.835 81.066 22.381 81.64C22.927 82.2 23.62 82.48 24.46 82.48ZM39.7118 73.534C41.1118 73.534 42.2388 73.954 43.0928 74.794C43.9608 75.634 44.3948 76.88 44.3948 78.532V85H41.1188V79.036C41.1188 78.14 40.9228 77.475 40.5308 77.041C40.1388 76.593 39.5718 76.369 38.8298 76.369C38.0038 76.369 37.3458 76.628 36.8558 77.146C36.3658 77.65 36.1208 78.406 36.1208 79.414V85H32.8448V73.702H35.9738V75.025C36.4078 74.549 36.9468 74.185 37.5908 73.933C38.2348 73.667 38.9418 73.534 39.7118 73.534ZM52.8634 85.168C51.6734 85.168 50.6024 84.923 49.6504 84.433C48.7124 83.929 47.9774 83.236 47.4454 82.354C46.9134 81.472 46.6474 80.471 46.6474 79.351C46.6474 78.231 46.9134 77.23 47.4454 76.348C47.9774 75.466 48.7124 74.78 49.6504 74.29C50.6024 73.786 51.6734 73.534 52.8634 73.534C54.0534 73.534 55.1174 73.786 56.0554 74.29C56.9934 74.78 57.7284 75.466 58.2604 76.348C58.7924 77.23 59.0584 78.231 59.0584 79.351C59.0584 80.471 58.7924 81.472 58.2604 82.354C57.7284 83.236 56.9934 83.929 56.0554 84.433C55.1174 84.923 54.0534 85.168 52.8634 85.168ZM52.8634 82.48C53.7034 82.48 54.3894 82.2 54.9214 81.64C55.4674 81.066 55.7404 80.303 55.7404 79.351C55.7404 78.399 55.4674 77.643 54.9214 77.083C54.3894 76.509 53.7034 76.222 52.8634 76.222C52.0234 76.222 51.3304 76.509 50.7844 77.083C50.2384 77.643 49.9654 78.399 49.9654 79.351C49.9654 80.303 50.2384 81.066 50.7844 81.64C51.3304 82.2 52.0234 82.48 52.8634 82.48ZM64.3771 75.193C64.7691 74.647 65.2941 74.234 65.9521 73.954C66.6241 73.674 67.3941 73.534 68.2621 73.534V76.558C67.8981 76.53 67.6531 76.516 67.5271 76.516C66.5891 76.516 65.8541 76.782 65.3221 77.314C64.7901 77.832 64.5241 78.616 64.5241 79.666V85H61.2481V73.702H64.3771V75.193Z"/>
</svg>
