<svg width="68" height="64" viewBox="0 0 68 64" fill="none" xmlns="http://www.w3.org/2000/svg">
<path d="M62.4002 23.3304C61.5151 23.3304 60.7957 22.611 60.7957 21.7259V9.66781C60.7957 6.77163 58.4397 4.41564 55.5435 4.41564C52.6473 4.41564 50.2914 6.77163 50.2914 9.66781V14.2033C50.2914 15.0884 49.572 15.8078 48.6868 15.8078C47.8017 15.8078 47.0823 15.0884 47.0823 14.2033V9.66781C47.0823 5.00397 50.877 1.20658 55.5435 1.20658C60.21 1.20658 64.0048 5.00129 64.0048 9.66781V21.7259C64.0048 22.611 63.2854 23.3304 62.4002 23.3304Z" />
<path d="M55.5139 16.0352C54.6287 16.0352 53.9094 15.3158 53.9094 14.4307C53.9094 12.4518 55.1556 10.66 57.0088 9.96741L61.8411 8.16499C62.6701 7.85478 63.5954 8.2773 63.9056 9.10631C64.2158 9.93532 63.7933 10.8606 62.9643 11.1708L58.132 12.9732C57.5276 13.1979 57.1211 13.7835 57.1211 14.428C57.1211 15.3132 56.4017 16.0325 55.5166 16.0325L55.5139 16.0352Z" />
<path d="M55.5139 23.3305C54.6287 23.3305 53.9094 22.6111 53.9094 21.7259C53.9094 19.747 55.1556 17.9553 57.0088 17.2627L61.8411 15.4602C62.6701 15.15 63.5954 15.5725 63.9056 16.4016C64.2158 17.2306 63.7933 18.1558 62.9643 18.4661L58.132 20.2685C57.5276 20.4931 57.1211 21.0788 57.1211 21.7233C57.1211 22.6084 56.4017 23.3278 55.5166 23.3278L55.5139 23.3305Z" />
<path d="M15.5987 33.5566H21.9874C22.327 33.5566 22.5784 33.7598 22.7496 34.1636C22.7683 34.2118 22.779 34.2706 22.779 34.3481V36.5624C22.779 36.902 22.5757 37.1587 22.1719 37.3379C22.097 37.3566 22.0302 37.3673 21.974 37.3673H18.6446C18.6259 37.3673 18.6152 37.378 18.6152 37.3968V42.911C18.6152 42.9297 18.6232 42.9404 18.6446 42.9404H20.5915C20.6851 42.9404 20.7974 42.9351 20.9311 42.927C21.1664 42.927 21.3884 43.0527 21.5943 43.3068C21.6986 43.4485 21.7494 43.6357 21.7494 43.871V45.6628C21.7494 46.096 21.6505 46.3821 21.4526 46.5239C21.2921 46.6656 21.1183 46.7351 20.9311 46.7351H18.6473C18.6286 46.7458 18.6179 46.7538 18.6179 46.7645V54.9717C18.6179 55.0653 18.6232 55.1776 18.6313 55.3114C18.6313 55.5467 18.5002 55.7686 18.2355 55.9746C18.0937 56.0789 17.9119 56.1297 17.6846 56.1297H15.8929C15.4516 56.1297 15.1601 56.0254 15.0184 55.8195C14.8767 55.659 14.8071 55.4905 14.8071 55.3114V40.0095C14.8071 38.6376 14.8018 36.7576 14.7938 34.3695C14.7938 34.1342 14.9248 33.9122 15.1895 33.7063C15.3206 33.6127 15.457 33.5646 15.5987 33.5646V33.5566Z" />
<path d="M29.3201 33.5566H29.756C30.5074 33.5566 31.3177 33.8 32.1815 34.2894C33.187 34.9285 33.893 35.8164 34.2968 36.9556C34.476 37.4904 34.5642 37.9611 34.5642 38.3649V51.2974C34.5642 52.1157 34.2834 52.9795 33.7191 53.8914C33.54 54.1535 33.2619 54.469 32.8875 54.8354C31.882 55.6912 30.7615 56.119 29.5313 56.119C28.2236 56.119 27.055 55.6457 26.0201 54.6937C25.5414 54.1856 25.2312 53.763 25.0894 53.4234C24.9103 53.1132 24.7685 52.7415 24.6669 52.3083C24.592 52.1104 24.5359 51.7306 24.4984 51.1664V38.5173C24.4984 37.6348 24.7659 36.7416 25.3034 35.8378C25.9238 34.8777 26.8304 34.1931 28.0257 33.7786C28.5338 33.6288 28.9644 33.554 29.3227 33.554L29.3201 33.5566ZM28.3199 39.127V50.5353C28.3199 51.1664 28.3493 51.4793 28.4055 51.4793C28.491 51.7413 28.6675 51.9633 28.9403 52.1425C29.1462 52.2361 29.3308 52.2842 29.4912 52.2842H29.5902C30.0501 52.2842 30.4138 52.0302 30.6759 51.5221C30.724 51.3723 30.7454 51.2439 30.7454 51.1423V38.52C30.7454 38.06 30.4914 37.7017 29.9833 37.4476C29.8335 37.3995 29.7025 37.3781 29.5875 37.3781H29.4885C29.0366 37.3781 28.6889 37.6081 28.4456 38.0681C28.36 38.1429 28.3199 38.4959 28.3199 39.127Z" />
<path d="M42.2524 33.5566H42.6883C43.4505 33.5566 44.2581 33.7999 45.1138 34.2893C46.1193 34.9284 46.8253 35.8163 47.2291 36.9555C47.4083 37.4904 47.4966 37.961 47.4966 38.3648V40.7342C47.4966 41.0925 47.28 41.3493 46.8467 41.5097C46.7531 41.5284 46.6595 41.5391 46.5659 41.5391H44.6191C44.1297 41.5391 43.8195 41.2984 43.6885 40.8198C43.6778 40.7262 43.6751 40.6513 43.6751 40.5951V38.5226C43.6751 38.0626 43.4211 37.7043 42.913 37.4502C42.7632 37.4021 42.6322 37.3807 42.5172 37.3807H42.4182C41.9663 37.3807 41.6186 37.6107 41.3753 38.0707C41.2897 38.1455 41.2496 38.4985 41.2496 39.1297V50.5379C41.2496 51.169 41.279 51.4819 41.3352 51.4819C41.4207 51.7439 41.5972 51.9659 41.87 52.1451C42.0759 52.2387 42.2604 52.2868 42.4209 52.2868H42.5198C42.9905 52.2868 43.3515 52.0328 43.6056 51.5247C43.6537 51.3749 43.6751 51.2465 43.6751 51.1449V47.7888H43.5762C43.0868 47.7888 42.7766 47.5481 42.6455 47.0694C42.6348 46.9758 42.6322 46.9009 42.6322 46.8448V44.8979C42.6322 44.4086 42.8755 44.0983 43.3649 43.9673C43.4585 43.9593 43.528 43.9539 43.5762 43.9539H46.6087C47.0419 43.9539 47.3334 44.1786 47.4832 44.6305C47.4912 44.668 47.4966 44.7054 47.4966 44.7428V55.3194C47.4966 55.6777 47.28 55.9344 46.8467 56.0949C46.7531 56.1136 46.6595 56.1243 46.5659 56.1243H44.6191C44.3383 56.1243 44.1217 56.0441 43.9693 55.8836C43.4531 56.0441 42.9477 56.1243 42.461 56.1243C41.1533 56.1243 39.9847 55.651 38.9498 54.699C38.4711 54.1909 38.1609 53.7683 38.0191 53.4287C37.84 53.1185 37.6982 52.7468 37.5966 52.3135C37.5217 52.1157 37.4656 51.7359 37.4281 51.1717C37.4361 50.947 37.4415 50.7759 37.4415 50.6636V38.9879C37.4415 38.8649 37.4361 38.7098 37.4281 38.5226C37.4281 37.6401 37.6955 36.7469 38.2331 35.843C38.8535 34.883 39.76 34.1984 40.9554 33.7839C41.4635 33.6341 41.8941 33.5592 42.2524 33.5592V33.5566Z" />
<path d="M50.9253 33.5566H53.1395C53.4791 33.5566 53.7359 33.7598 53.915 34.1636C53.9337 34.2385 53.9444 34.3054 53.9444 34.3615V54.9637C53.9444 55.0573 53.9498 55.1696 53.9578 55.3033C53.9578 55.5387 53.8268 55.7606 53.562 55.9665C53.4203 56.0708 53.2385 56.1216 53.0111 56.1216H51.2194C50.7782 56.1216 50.4867 56.0173 50.3449 55.8114C50.2032 55.651 50.1337 55.4825 50.1337 55.3033V34.7011C50.1337 34.6075 50.1283 34.4952 50.1203 34.3615C50.1203 34.1262 50.2513 33.9042 50.5161 33.6983C50.6471 33.6047 50.7835 33.5566 50.9253 33.5566Z" />
<path d="M56.6882 63.9973H11.7426C9.05766 63.9973 6.74981 62.0826 6.25507 59.4431L1.30509 33.0673C0.997559 31.4307 1.43078 29.754 2.49512 28.473C3.55946 27.1921 5.12655 26.454 6.79259 26.454H61.6382C63.3042 26.454 64.8713 27.1894 65.9356 28.473C67 29.7566 67.4332 31.4307 67.1257 33.0673L62.1757 59.4458C61.681 62.0853 59.3731 64 56.6882 64V63.9973ZM6.79259 29.663C6.08392 29.663 5.41804 29.9759 4.9661 30.5215C4.51416 31.067 4.32964 31.7783 4.46067 32.4763L9.41065 58.8548C9.62192 59.978 10.6034 60.791 11.7452 60.791H56.6882C57.8301 60.791 58.8115 59.978 59.0228 58.8548L63.9728 32.4763C64.1038 31.781 63.9193 31.067 63.4673 30.5215C63.0154 29.9759 62.3495 29.663 61.6408 29.663H6.79259Z" />
<path d="M47.2347 23.3304C46.6411 23.3304 46.0688 22.9988 45.7907 22.4292C43.6138 17.9632 39.1773 15.1901 34.214 15.1901C29.2506 15.1901 24.8141 17.9632 22.6373 22.4292C22.2495 23.2261 21.2895 23.5577 20.4925 23.1673C19.6956 22.7795 19.364 21.8195 19.7544 21.0225C22.4715 15.4441 28.0151 11.9783 34.2166 11.9783C40.4181 11.9783 45.9591 15.4441 48.6788 21.0225C49.0666 21.8195 48.735 22.7795 47.9407 23.1673C47.7134 23.2769 47.4754 23.3304 47.2401 23.3304H47.2347Z" />
<path d="M30.1999 11.0451C28.5846 11.0451 26.7287 10.2241 25.1884 8.68375C22.6666 6.16196 22.0756 2.80047 23.8459 1.03013C24.7846 0.0914834 26.2206 -0.224075 27.7824 0.163687C29.0767 0.487268 30.3978 1.27081 31.4995 2.37259C34.0213 4.89438 34.6123 8.25588 32.842 10.0262C32.1547 10.7135 31.2268 11.0451 30.1999 11.0451ZM26.4934 3.20695C26.2875 3.20695 26.1591 3.25241 26.1137 3.29787C26.0361 3.37543 25.9639 3.67761 26.0923 4.18839C26.2741 4.91578 26.7715 5.72606 27.4561 6.41334C28.9189 7.87614 30.3443 7.98578 30.5716 7.7558C30.7989 7.52581 30.6893 6.10313 29.2265 4.64033C28.5419 3.95573 27.7316 3.45833 27.0015 3.27648C26.7983 3.22567 26.6271 3.20695 26.4907 3.20695H26.4934Z" />
<path d="M38.2494 11.0558C37.1984 11.0558 36.2678 10.7028 35.5912 10.0262C33.8209 8.25587 34.4119 4.89437 36.9337 2.37259C38.0355 1.27081 39.3539 0.48726 40.6509 0.16368C42.2126 -0.226756 43.6487 0.0888016 44.5873 1.03013C45.526 1.96878 45.8415 3.40483 45.4538 4.96658C45.1302 6.2609 44.3466 7.58197 43.2449 8.68374C42.1431 9.78552 40.8247 10.5691 39.5277 10.8926C39.0891 11.0023 38.6612 11.0558 38.2494 11.0558ZM41.9372 3.20694C41.8008 3.20694 41.6296 3.22566 41.4264 3.27647C40.699 3.45832 39.8887 3.95572 39.2014 4.64032C37.7386 6.10312 37.6317 7.52848 37.859 7.75579C37.9365 7.83334 38.2387 7.90287 38.7495 7.77718C39.4769 7.59534 40.2872 7.09793 40.9744 6.41333C41.6617 5.72873 42.1564 4.91844 42.3383 4.18838C42.4667 3.6776 42.3945 3.37542 42.3169 3.29787C42.2688 3.24973 42.1404 3.20694 41.9372 3.20694Z" />
<path d="M2.17139 23.3305C1.39052 23.3305 0.703241 22.7582 0.585575 21.9613C0.529416 21.5788 0.5 21.1884 0.5 20.8006C0.5 16.5567 3.89091 13.0909 8.10281 12.9652C8.22582 8.75061 11.6943 5.36237 15.9356 5.36237C20.1769 5.36237 23.7737 8.87897 23.7737 13.2005C23.7737 14.0857 23.0544 14.805 22.1692 14.805C21.284 14.805 20.5647 14.0857 20.5647 13.2005C20.5647 10.6493 18.4895 8.57143 15.9356 8.57143C13.3817 8.57143 11.3065 10.6466 11.3065 13.2005C11.3065 13.5802 11.36 13.9734 11.4643 14.3718C11.6087 14.9227 11.4483 15.5084 11.0471 15.9122C10.6433 16.316 10.0577 16.4738 9.50677 16.3293C9.10831 16.2251 8.71253 16.1716 8.33546 16.1716C5.78426 16.1716 3.70639 18.2468 3.70639 20.8006C3.70639 21.0306 3.72243 21.2633 3.7572 21.4906C3.88824 22.3677 3.28119 23.1834 2.40672 23.3144C2.32649 23.3251 2.24627 23.3331 2.16871 23.3331L2.17139 23.3305Z" />
</svg>
