<svg width="67" height="80" viewBox="0 0 67 80" fill="none" xmlns="http://www.w3.org/2000/svg">
<path d="M62.1227 23.3304C61.2375 23.3304 60.5181 22.611 60.5181 21.7259V9.66781C60.5181 6.77163 58.1621 4.41564 55.266 4.41564C52.3698 4.41564 50.0138 6.77163 50.0138 9.66781V14.2033C50.0138 15.0884 49.2944 15.8078 48.4093 15.8078C47.5241 15.8078 46.8047 15.0884 46.8047 14.2033V9.66781C46.8047 5.00397 50.5994 1.20658 55.266 1.20658C59.9325 1.20658 63.7272 5.00129 63.7272 9.66781V21.7259C63.7272 22.611 63.0078 23.3304 62.1227 23.3304Z" fill="#82CD47"/>
<path d="M55.2363 16.0352C54.3512 16.0352 53.6318 15.3158 53.6318 14.4307C53.6318 12.4518 54.878 10.66 56.7312 9.96741L61.5635 8.16499C62.3926 7.85478 63.3178 8.2773 63.628 9.10631C63.9383 9.93532 63.5157 10.8606 62.6867 11.1708L57.8544 12.9732C57.25 13.1979 56.8435 13.7835 56.8435 14.428C56.8435 15.3132 56.1242 16.0325 55.239 16.0325L55.2363 16.0352Z" fill="#82CD47"/>
<path d="M55.2363 23.3305C54.3512 23.3305 53.6318 22.6111 53.6318 21.7259C53.6318 19.747 54.878 17.9553 56.7312 17.2627L61.5635 15.4602C62.3926 15.15 63.3178 15.5725 63.628 16.4016C63.9383 17.2306 63.5157 18.1558 62.6867 18.4661L57.8544 20.2685C57.25 20.4931 56.8435 21.0788 56.8435 21.7233C56.8435 22.6084 56.1242 23.3278 55.239 23.3278L55.2363 23.3305Z" fill="#82CD47"/>
<path d="M15.3211 33.5566H21.7098C22.0495 33.5566 22.3008 33.7598 22.472 34.1636C22.4907 34.2118 22.5014 34.2706 22.5014 34.3481V36.5624C22.5014 36.902 22.2982 37.1587 21.8943 37.3379C21.8195 37.3566 21.7526 37.3673 21.6965 37.3673H18.3671C18.3483 37.3673 18.3376 37.378 18.3376 37.3968V42.911C18.3376 42.9297 18.3457 42.9404 18.3671 42.9404H20.3139C20.4075 42.9404 20.5198 42.9351 20.6535 42.927C20.8888 42.927 21.1108 43.0527 21.3167 43.3068C21.421 43.4485 21.4718 43.6357 21.4718 43.871V45.6628C21.4718 46.096 21.3729 46.3821 21.175 46.5239C21.0145 46.6656 20.8407 46.7351 20.6535 46.7351H18.3697C18.351 46.7458 18.3403 46.7538 18.3403 46.7645V54.9717C18.3403 55.0653 18.3457 55.1776 18.3537 55.3114C18.3537 55.5467 18.2226 55.7686 17.9579 55.9746C17.8162 56.0789 17.6343 56.1297 17.407 56.1297H15.6153C15.174 56.1297 14.8825 56.0254 14.7408 55.8195C14.5991 55.659 14.5295 55.4905 14.5295 55.3114V40.0095C14.5295 38.6376 14.5242 36.7576 14.5162 34.3695C14.5162 34.1342 14.6472 33.9122 14.912 33.7063C15.043 33.6127 15.1794 33.5646 15.3211 33.5646V33.5566Z" fill="#82CD47"/>
<path d="M29.0425 33.5566H29.4784C30.2298 33.5566 31.0401 33.8 31.9039 34.2894C32.9094 34.9285 33.6154 35.8164 34.0192 36.9556C34.1984 37.4904 34.2866 37.9611 34.2866 38.3649V51.2974C34.2866 52.1157 34.0058 52.9795 33.4416 53.8914C33.2624 54.1535 32.9843 54.469 32.6099 54.8354C31.6044 55.6912 30.4839 56.119 29.2537 56.119C27.946 56.119 26.7774 55.6457 25.7425 54.6937C25.2638 54.1856 24.9536 53.763 24.8119 53.4234C24.6327 53.1132 24.491 52.7415 24.3893 52.3083C24.3145 52.1104 24.2583 51.7306 24.2209 51.1664V38.5173C24.2209 37.6348 24.4883 36.7416 25.0258 35.8378C25.6462 34.8777 26.5528 34.1931 27.7482 33.7786C28.2563 33.6288 28.6868 33.554 29.0451 33.554L29.0425 33.5566ZM28.0423 39.127V50.5353C28.0423 51.1664 28.0717 51.4793 28.1279 51.4793C28.2135 51.7413 28.39 51.9633 28.6627 52.1425C28.8686 52.2361 29.0532 52.2842 29.2136 52.2842H29.3126C29.7725 52.2842 30.1362 52.0302 30.3983 51.5221C30.4464 51.3723 30.4678 51.2439 30.4678 51.1423V38.52C30.4678 38.06 30.2138 37.7017 29.7057 37.4476C29.5559 37.3995 29.4249 37.3781 29.3099 37.3781H29.211C28.759 37.3781 28.4114 37.6081 28.168 38.0681C28.0824 38.1429 28.0423 38.4959 28.0423 39.127Z" fill="#82CD47"/>
<path d="M41.9748 33.5566H42.4107C43.1729 33.5566 43.9805 33.7999 44.8363 34.2893C45.8418 34.9284 46.5478 35.8163 46.9516 36.9555C47.1307 37.4904 47.219 37.961 47.219 38.3648V40.7342C47.219 41.0925 47.0024 41.3493 46.5691 41.5097C46.4755 41.5284 46.3819 41.5391 46.2884 41.5391H44.3415C43.8521 41.5391 43.5419 41.2984 43.4109 40.8198C43.4002 40.7262 43.3975 40.6513 43.3975 40.5951V38.5226C43.3975 38.0626 43.1435 37.7043 42.6354 37.4502C42.4856 37.4021 42.3546 37.3807 42.2396 37.3807H42.1406C41.6887 37.3807 41.341 37.6107 41.0977 38.0707C41.0121 38.1455 40.972 38.4985 40.972 39.1297V50.5379C40.972 51.169 41.0014 51.4819 41.0576 51.4819C41.1432 51.7439 41.3197 51.9659 41.5924 52.1451C41.7983 52.2387 41.9829 52.2868 42.1433 52.2868H42.2423C42.7129 52.2868 43.0739 52.0328 43.328 51.5247C43.3761 51.3749 43.3975 51.2465 43.3975 51.1449V47.7888H43.2986C42.8092 47.7888 42.499 47.5481 42.3679 47.0694C42.3573 46.9758 42.3546 46.9009 42.3546 46.8448V44.8979C42.3546 44.4086 42.5979 44.0983 43.0873 43.9673C43.1809 43.9593 43.2504 43.9539 43.2986 43.9539H46.3311C46.7644 43.9539 47.0559 44.1786 47.2056 44.6305C47.2136 44.668 47.219 44.7054 47.219 44.7428V55.3194C47.219 55.6777 47.0024 55.9344 46.5691 56.0949C46.4755 56.1136 46.3819 56.1243 46.2884 56.1243H44.3415C44.0607 56.1243 43.8441 56.0441 43.6917 55.8836C43.1756 56.0441 42.6701 56.1243 42.1834 56.1243C40.8757 56.1243 39.7071 55.651 38.6722 54.699C38.1935 54.1909 37.8833 53.7683 37.7415 53.4287C37.5624 53.1185 37.4206 52.7468 37.319 52.3135C37.2441 52.1157 37.188 51.7359 37.1505 51.1717C37.1586 50.947 37.1639 50.7759 37.1639 50.6636V38.9879C37.1639 38.8649 37.1586 38.7098 37.1505 38.5226C37.1505 37.6401 37.418 36.7469 37.9555 35.843C38.5759 34.883 39.4825 34.1984 40.6778 33.7839C41.1859 33.6341 41.6165 33.5592 41.9748 33.5592V33.5566Z" fill="#82CD47"/>
<path d="M50.6477 33.5566H52.8619C53.2016 33.5566 53.4583 33.7598 53.6375 34.1636C53.6562 34.2385 53.6669 34.3054 53.6669 34.3615V54.9637C53.6669 55.0573 53.6722 55.1696 53.6802 55.3033C53.6802 55.5387 53.5492 55.7606 53.2845 55.9665C53.1427 56.0708 52.9609 56.1216 52.7336 56.1216H50.9418C50.5006 56.1216 50.2091 56.0173 50.0674 55.8114C49.9256 55.651 49.8561 55.4825 49.8561 55.3033V34.7011C49.8561 34.6075 49.8508 34.4952 49.8427 34.3615C49.8427 34.1262 49.9738 33.9042 50.2385 33.6983C50.3696 33.6047 50.5059 33.5566 50.6477 33.5566Z" fill="#82CD47"/>
<path d="M56.4106 63.9973H11.465C8.78008 63.9973 6.47223 62.0826 5.9775 59.4431L1.02752 33.0673C0.719982 31.4307 1.15321 29.754 2.21755 28.473C3.28188 27.1921 4.84898 26.454 6.51502 26.454H61.3606C63.0266 26.454 64.5937 27.1894 65.6581 28.473C66.7224 29.7566 67.1556 31.4307 66.8481 33.0673L61.8981 59.4458C61.4034 62.0853 59.0955 64 56.4106 64V63.9973ZM6.51502 29.663C5.80635 29.663 5.14047 29.9759 4.68852 30.5215C4.23658 31.067 4.05206 31.7783 4.1831 32.4763L9.13308 58.8548C9.34434 59.978 10.3258 60.791 11.4677 60.791H56.4106C57.5525 60.791 58.5339 59.978 58.7452 58.8548L63.6952 32.4763C63.8262 31.781 63.6417 31.067 63.1898 30.5215C62.7378 29.9759 62.0719 29.663 61.3633 29.663H6.51502Z" fill="#82CD47"/>
<path d="M46.9572 23.3304C46.3635 23.3304 45.7912 22.9988 45.5131 22.4292C43.3363 17.9632 38.8997 15.1901 33.9364 15.1901C28.973 15.1901 24.5365 17.9632 22.3597 22.4292C21.9719 23.2261 21.0119 23.5577 20.215 23.1673C19.418 22.7795 19.0864 21.8195 19.4769 21.0225C22.1939 15.4441 27.7375 11.9783 33.9391 11.9783C40.1406 11.9783 45.6816 15.4441 48.4012 21.0225C48.789 21.8195 48.4574 22.7795 47.6631 23.1673C47.4358 23.2769 47.1978 23.3304 46.9625 23.3304H46.9572Z" fill="#82CD47"/>
<path d="M29.9223 11.0451C28.3071 11.0451 26.4512 10.2241 24.9108 8.68375C22.389 6.16196 21.798 2.80047 23.5683 1.03013C24.507 0.0914834 25.9431 -0.224075 27.5048 0.163687C28.7991 0.487268 30.1202 1.27081 31.222 2.37259C33.7437 4.89438 34.3348 8.25588 32.5644 10.0262C31.8771 10.7135 30.9492 11.0451 29.9223 11.0451ZM26.2158 3.20695C26.0099 3.20695 25.8815 3.25241 25.8361 3.29787C25.7585 3.37543 25.6863 3.67761 25.8147 4.18839C25.9965 4.91578 26.4939 5.72606 27.1785 6.41334C28.6413 7.87614 30.0667 7.98578 30.294 7.7558C30.5213 7.52581 30.4117 6.10313 28.9489 4.64033C28.2643 3.95573 27.454 3.45833 26.7239 3.27648C26.5207 3.22567 26.3495 3.20695 26.2131 3.20695H26.2158Z" fill="#82CD47"/>
<path d="M37.9719 11.0558C36.9209 11.0558 35.9903 10.7028 35.3137 10.0262C33.5433 8.25587 34.1343 4.89437 36.6561 2.37259C37.7579 1.27081 39.0763 0.48726 40.3733 0.16368C41.935 -0.226756 43.3711 0.0888016 44.3098 1.03013C45.2484 1.96878 45.564 3.40483 45.1762 4.96658C44.8526 6.2609 44.0691 7.58197 42.9673 8.68374C41.8655 9.78552 40.5471 10.5691 39.2501 10.8926C38.8116 11.0023 38.3837 11.0558 37.9719 11.0558ZM41.6596 3.20694C41.5232 3.20694 41.3521 3.22566 41.1488 3.27647C40.4214 3.45832 39.6111 3.95572 38.9239 4.64032C37.4611 6.10312 37.3541 7.52848 37.5814 7.75579C37.659 7.83334 37.9612 7.90287 38.4719 7.77718C39.1993 7.59534 40.0096 7.09793 40.6969 6.41333C41.3842 5.72873 41.8789 4.91844 42.0607 4.18838C42.1891 3.6776 42.1169 3.37542 42.0393 3.29787C41.9912 3.24973 41.8628 3.20694 41.6596 3.20694Z" fill="#82CD47"/>
<path d="M1.89381 23.3305C1.11294 23.3305 0.425668 22.7582 0.308002 21.9613C0.251844 21.5788 0.222427 21.1884 0.222427 20.8006C0.222427 16.5567 3.61334 13.0909 7.82523 12.9652C7.94825 8.75061 11.4167 5.36237 15.658 5.36237C19.8993 5.36237 23.4962 8.87897 23.4962 13.2005C23.4962 14.0857 22.7768 14.805 21.8916 14.805C21.0065 14.805 20.2871 14.0857 20.2871 13.2005C20.2871 10.6493 18.2119 8.57143 15.658 8.57143C13.1041 8.57143 11.0289 10.6466 11.0289 13.2005C11.0289 13.5802 11.0824 13.9734 11.1867 14.3718C11.3311 14.9227 11.1707 15.5084 10.7695 15.9122C10.3657 16.316 9.78009 16.4738 9.2292 16.3293C8.83074 16.2251 8.43495 16.1716 8.05789 16.1716C5.50668 16.1716 3.42882 18.2468 3.42882 20.8006C3.42882 21.0306 3.44486 21.2633 3.47963 21.4906C3.61066 22.3677 3.00362 23.1834 2.12915 23.3144C2.04892 23.3251 1.96869 23.3331 1.89114 23.3331L1.89381 23.3305Z" fill="#82CD47"/>
<path d="M0.557649 67.887H3.11865L5.39365 74.478L7.68165 67.887H10.1256L6.56365 77H4.09365L0.557649 67.887ZM13.4269 69.889C14.1896 69.889 14.8613 70.0407 15.4419 70.344C16.0226 70.6387 16.4733 71.059 16.7939 71.605C17.1146 72.1423 17.2749 72.7663 17.2749 73.477C17.2749 74.1963 17.1146 74.829 16.7939 75.375C16.4733 75.9123 16.0226 76.3327 15.4419 76.636C14.8613 76.9307 14.1896 77.078 13.4269 77.078C12.6643 77.078 11.9926 76.9307 11.4119 76.636C10.8313 76.3327 10.3806 75.9123 10.0599 75.375C9.74794 74.829 9.59194 74.1963 9.59194 73.477C9.59194 72.7663 9.74794 72.1423 10.0599 71.605C10.3806 71.059 10.8313 70.6387 11.4119 70.344C11.9926 70.0407 12.6643 69.889 13.4269 69.889ZM13.4269 71.761C12.9763 71.761 12.6123 71.9213 12.3349 72.242C12.0576 72.5627 11.9189 72.983 11.9189 73.503C11.9189 74.0317 12.0576 74.4563 12.3349 74.777C12.6123 75.0977 12.9763 75.258 13.4269 75.258C13.8863 75.258 14.2546 75.0977 14.5319 74.777C14.8093 74.4563 14.9479 74.0317 14.9479 73.503C14.9479 72.983 14.8049 72.5627 14.5189 72.242C14.2416 71.9213 13.8776 71.761 13.4269 71.761ZM18.519 67.354H20.833V77H18.519V67.354ZM29.5328 69.967V77H27.2188V75.856C26.7422 76.6707 25.9925 77.0867 24.9698 77.104C24.2072 77.104 23.5962 76.8613 23.1368 76.376C22.6862 75.882 22.4608 75.2277 22.4608 74.413V69.967H24.7748V73.75C24.7748 74.1487 24.8745 74.4607 25.0738 74.686C25.2818 74.9113 25.5592 75.024 25.9058 75.024C26.3132 75.0153 26.6338 74.868 26.8678 74.582C27.1018 74.2873 27.2188 73.906 27.2188 73.438V69.967H29.5328ZM35.9426 69.876C36.714 69.876 37.3293 70.1187 37.7886 70.604C38.2566 71.0893 38.4906 71.7437 38.4906 72.567V77H36.1896V73.23C36.1896 72.8313 36.0813 72.5193 35.8646 72.294C35.648 72.06 35.3576 71.943 34.9936 71.943C34.6123 71.9517 34.296 72.0773 34.0446 72.32C33.802 72.5627 33.659 72.8833 33.6156 73.282V77H31.3016V69.967H33.6156V71.111C33.867 70.7037 34.1876 70.396 34.5776 70.188C34.9763 69.98 35.4313 69.876 35.9426 69.876ZM44.6374 76.636C44.3774 76.7833 44.0784 76.9003 43.7404 76.987C43.4024 77.065 43.0601 77.104 42.7134 77.104C42.0201 77.104 41.4567 76.9047 41.0234 76.506C40.5987 76.1073 40.3864 75.557 40.3864 74.855V71.839H39.4114V70.305H40.3864V68.355H42.6874V70.305H44.5074V71.839H42.6874V74.491C42.6874 74.985 42.8911 75.232 43.2984 75.232C43.5497 75.232 43.8487 75.154 44.1954 74.998L44.6374 76.636ZM48.7921 69.889C49.9361 69.889 50.8158 70.227 51.4311 70.903C52.0465 71.579 52.3541 72.5063 52.3541 73.685C52.3541 73.867 52.3498 74.0057 52.3411 74.101H47.4531C47.5658 74.4997 47.7608 74.8073 48.0381 75.024C48.3155 75.232 48.6535 75.336 49.0521 75.336C49.3555 75.336 49.6458 75.2753 49.9231 75.154C50.2091 75.0327 50.4691 74.855 50.7031 74.621L51.9121 75.83C51.5481 76.2373 51.1061 76.5493 50.5861 76.766C50.0748 76.974 49.4941 77.078 48.8441 77.078C48.0901 77.078 47.4315 76.9307 46.8681 76.636C46.3048 76.3413 45.8715 75.9253 45.5681 75.388C45.2735 74.8507 45.1261 74.2267 45.1261 73.516C45.1261 72.7967 45.2778 72.164 45.5811 71.618C45.8845 71.0633 46.3135 70.6387 46.8681 70.344C47.4228 70.0407 48.0641 69.889 48.7921 69.889ZM50.1051 72.866C50.1051 72.4587 49.9838 72.1337 49.7411 71.891C49.5071 71.6397 49.1951 71.514 48.8051 71.514C48.4411 71.514 48.1335 71.6353 47.8821 71.878C47.6395 72.1207 47.4791 72.45 47.4011 72.866H50.1051ZM56.6251 69.889C57.7691 69.889 58.6488 70.227 59.2641 70.903C59.8795 71.579 60.1871 72.5063 60.1871 73.685C60.1871 73.867 60.1828 74.0057 60.1741 74.101H55.2861C55.3988 74.4997 55.5938 74.8073 55.8711 75.024C56.1485 75.232 56.4865 75.336 56.8851 75.336C57.1885 75.336 57.4788 75.2753 57.7561 75.154C58.0421 75.0327 58.3021 74.855 58.5361 74.621L59.7451 75.83C59.3811 76.2373 58.9391 76.5493 58.4191 76.766C57.9078 76.974 57.3271 77.078 56.6771 77.078C55.9231 77.078 55.2645 76.9307 54.7011 76.636C54.1378 76.3413 53.7045 75.9253 53.4011 75.388C53.1065 74.8507 52.9591 74.2267 52.9591 73.516C52.9591 72.7967 53.1108 72.164 53.4141 71.618C53.7175 71.0633 54.1465 70.6387 54.7011 70.344C55.2558 70.0407 55.8971 69.889 56.6251 69.889ZM57.9381 72.866C57.9381 72.4587 57.8168 72.1337 57.5741 71.891C57.3401 71.6397 57.0281 71.514 56.6381 71.514C56.2741 71.514 55.9665 71.6353 55.7151 71.878C55.4725 72.1207 55.3121 72.45 55.2341 72.866H57.9381ZM63.6781 71.137C63.9208 70.7297 64.2328 70.4177 64.6141 70.201C65.0041 69.9843 65.4461 69.876 65.9401 69.876V71.995C65.8621 71.9863 65.7451 71.982 65.5891 71.982C65.0431 71.982 64.6011 72.112 64.2631 72.372C63.9251 72.6233 63.7301 72.97 63.6781 73.412V77H61.3641V69.967H63.6781V71.137Z" fill="#82CD47"/>
</svg>
