<svg width="68" height="84" viewBox="0 0 68 84" fill="none" xmlns="http://www.w3.org/2000/svg">
<path d="M62.9839 23.3304C62.0987 23.3304 61.3794 22.611 61.3794 21.7259V9.66781C61.3794 6.77163 59.0234 4.41564 56.1272 4.41564C53.231 4.41564 50.875 6.77163 50.875 9.66781V14.2033C50.875 15.0884 50.1557 15.8078 49.2705 15.8078C48.3853 15.8078 47.666 15.0884 47.666 14.2033V9.66781C47.666 5.00397 51.4607 1.20658 56.1272 1.20658C60.7937 1.20658 64.5884 5.00129 64.5884 9.66781V21.7259C64.5884 22.611 63.8691 23.3304 62.9839 23.3304Z" fill="#82CD47"/>
<path d="M56.0976 16.0352C55.2124 16.0352 54.493 15.3158 54.493 14.4307C54.493 12.4518 55.7392 10.66 57.5925 9.96741L62.4248 8.16499C63.2538 7.85478 64.1791 8.2773 64.4893 9.10631C64.7995 9.93532 64.377 10.8606 63.548 11.1708L58.7156 12.9732C58.1113 13.1979 57.7048 13.7835 57.7048 14.428C57.7048 15.3132 56.9854 16.0325 56.1002 16.0325L56.0976 16.0352Z" fill="#82CD47"/>
<path d="M56.0976 23.3305C55.2124 23.3305 54.493 22.6111 54.493 21.7259C54.493 19.747 55.7392 17.9553 57.5925 17.2627L62.4248 15.4602C63.2538 15.15 64.1791 15.5725 64.4893 16.4016C64.7995 17.2306 64.377 18.1558 63.548 18.4661L58.7156 20.2685C58.1113 20.4931 57.7048 21.0788 57.7048 21.7233C57.7048 22.6084 56.9854 23.3278 56.1002 23.3278L56.0976 23.3305Z" fill="#82CD47"/>
<path d="M16.1823 33.5566H22.571C22.9107 33.5566 23.162 33.7598 23.3332 34.1636C23.3519 34.2118 23.3626 34.2706 23.3626 34.3481V36.5624C23.3626 36.902 23.1594 37.1587 22.7556 37.3379C22.6807 37.3566 22.6138 37.3673 22.5577 37.3673H19.2283C19.2096 37.3673 19.1989 37.378 19.1989 37.3968V42.911C19.1989 42.9297 19.2069 42.9404 19.2283 42.9404H21.1751C21.2687 42.9404 21.381 42.9351 21.5147 42.927C21.7501 42.927 21.972 43.0527 22.1779 43.3068C22.2822 43.4485 22.333 43.6357 22.333 43.871V45.6628C22.333 46.096 22.2341 46.3821 22.0362 46.5239C21.8758 46.6656 21.7019 46.7351 21.5147 46.7351H19.2309C19.2122 46.7458 19.2015 46.7538 19.2015 46.7645V54.9717C19.2015 55.0653 19.2069 55.1776 19.2149 55.3114C19.2149 55.5467 19.0839 55.7686 18.8191 55.9746C18.6774 56.0789 18.4955 56.1297 18.2682 56.1297H16.4765C16.0353 56.1297 15.7438 56.0254 15.602 55.8195C15.4603 55.659 15.3908 55.4905 15.3908 55.3114V40.0095C15.3908 38.6376 15.3854 36.7576 15.3774 34.3695C15.3774 34.1342 15.5084 33.9122 15.7732 33.7063C15.9042 33.6127 16.0406 33.5646 16.1823 33.5646V33.5566Z" fill="#82CD47"/>
<path d="M29.9037 33.5566H30.3396C31.0911 33.5566 31.9014 33.8 32.7651 34.2894C33.7706 34.9285 34.4766 35.8164 34.8804 36.9556C35.0596 37.4904 35.1479 37.9611 35.1479 38.3649V51.2974C35.1479 52.1157 34.8671 52.9795 34.3028 53.8914C34.1236 54.1535 33.8455 54.469 33.4711 54.8354C32.4656 55.6912 31.3451 56.119 30.115 56.119C28.8073 56.119 27.6386 55.6457 26.6037 54.6937C26.125 54.1856 25.8148 53.763 25.6731 53.4234C25.4939 53.1132 25.3522 52.7415 25.2506 52.3083C25.1757 52.1104 25.1195 51.7306 25.0821 51.1664V38.5173C25.0821 37.6348 25.3495 36.7416 25.887 35.8378C26.5075 34.8777 27.414 34.1931 28.6094 33.7786C29.1175 33.6288 29.548 33.554 29.9064 33.554L29.9037 33.5566ZM28.9036 39.127V50.5353C28.9036 51.1664 28.933 51.4793 28.9891 51.4793C29.0747 51.7413 29.2512 51.9633 29.524 52.1425C29.7299 52.2361 29.9144 52.2842 30.0749 52.2842H30.1738C30.6338 52.2842 30.9975 52.0302 31.2595 51.5221C31.3077 51.3723 31.3291 51.2439 31.3291 51.1423V38.52C31.3291 38.06 31.075 37.7017 30.5669 37.4476C30.4172 37.3995 30.2861 37.3781 30.1711 37.3781H30.0722C29.6202 37.3781 29.2726 37.6081 29.0292 38.0681C28.9437 38.1429 28.9036 38.4959 28.9036 39.127Z" fill="#82CD47"/>
<path d="M42.8361 33.5566H43.272C44.0341 33.5566 44.8417 33.7999 45.6975 34.2893C46.703 34.9284 47.409 35.8163 47.8128 36.9555C47.992 37.4904 48.0802 37.961 48.0802 38.3648V40.7342C48.0802 41.0925 47.8636 41.3493 47.4304 41.5097C47.3368 41.5284 47.2432 41.5391 47.1496 41.5391H45.2028C44.7134 41.5391 44.4032 41.2984 44.2721 40.8198C44.2614 40.7262 44.2588 40.6513 44.2588 40.5951V38.5226C44.2588 38.0626 44.0047 37.7043 43.4966 37.4502C43.3469 37.4021 43.2158 37.3807 43.1008 37.3807H43.0019C42.5499 37.3807 42.2023 37.6107 41.9589 38.0707C41.8734 38.1455 41.8332 38.4985 41.8332 39.1297V50.5379C41.8332 51.169 41.8627 51.4819 41.9188 51.4819C42.0044 51.7439 42.1809 51.9659 42.4537 52.1451C42.6596 52.2387 42.8441 52.2868 43.0045 52.2868H43.1035C43.5742 52.2868 43.9352 52.0328 44.1892 51.5247C44.2374 51.3749 44.2588 51.2465 44.2588 51.1449V47.7888H44.1598C43.6704 47.7888 43.3602 47.5481 43.2292 47.0694C43.2185 46.9758 43.2158 46.9009 43.2158 46.8448V44.8979C43.2158 44.4086 43.4592 44.0983 43.9485 43.9673C44.0421 43.9593 44.1117 43.9539 44.1598 43.9539H47.1924C47.6256 43.9539 47.9171 44.1786 48.0668 44.6305C48.0749 44.668 48.0802 44.7054 48.0802 44.7428V55.3194C48.0802 55.6777 47.8636 55.9344 47.4304 56.0949C47.3368 56.1136 47.2432 56.1243 47.1496 56.1243H45.2028C44.922 56.1243 44.7054 56.0441 44.5529 55.8836C44.0368 56.0441 43.5314 56.1243 43.0447 56.1243C41.737 56.1243 40.5683 55.651 39.5334 54.699C39.0547 54.1909 38.7445 53.7683 38.6028 53.4287C38.4236 53.1185 38.2819 52.7468 38.1803 52.3135C38.1054 52.1157 38.0492 51.7359 38.0118 51.1717C38.0198 50.947 38.0252 50.7759 38.0252 50.6636V38.9879C38.0252 38.8649 38.0198 38.7098 38.0118 38.5226C38.0118 37.6401 38.2792 36.7469 38.8167 35.843C39.4371 34.883 40.3437 34.1984 41.5391 33.7839C42.0472 33.6341 42.4777 33.5592 42.8361 33.5592V33.5566Z" fill="#82CD47"/>
<path d="M51.5089 33.5566H53.7232C54.0628 33.5566 54.3195 33.7598 54.4987 34.1636C54.5174 34.2385 54.5281 34.3054 54.5281 34.3615V54.9637C54.5281 55.0573 54.5335 55.1696 54.5415 55.3033C54.5415 55.5387 54.4104 55.7606 54.1457 55.9665C54.004 56.0708 53.8221 56.1216 53.5948 56.1216H51.8031C51.3618 56.1216 51.0703 56.0173 50.9286 55.8114C50.7869 55.651 50.7174 55.4825 50.7174 55.3033V34.7011C50.7174 34.6075 50.712 34.4952 50.704 34.3615C50.704 34.1262 50.835 33.9042 51.0998 33.6983C51.2308 33.6047 51.3672 33.5566 51.5089 33.5566Z" fill="#82CD47"/>
<path d="M57.2718 63.9973H12.3262C9.6413 63.9973 7.33345 62.0826 6.83872 59.4431L1.88874 33.0673C1.5812 31.4307 2.01443 29.754 3.07877 28.473C4.14311 27.1921 5.7102 26.454 7.37624 26.454H62.2218C63.8879 26.454 65.4549 27.1894 66.5193 28.473C67.5836 29.7566 68.0169 31.4307 67.7093 33.0673L62.7593 59.4458C62.2646 62.0853 59.9568 64 57.2718 64V63.9973ZM7.37624 29.663C6.66757 29.663 6.00169 29.9759 5.54975 30.5215C5.0978 31.067 4.91328 31.7783 5.04432 32.4763L9.9943 58.8548C10.2056 59.978 11.187 60.791 12.3289 60.791H57.2718C58.4137 60.791 59.3952 59.978 59.6064 58.8548L64.5564 32.4763C64.6874 31.781 64.5029 31.067 64.051 30.5215C63.599 29.9759 62.9332 29.663 62.2245 29.663H7.37624Z" fill="#82CD47"/>
<path d="M47.8184 23.3304C47.2247 23.3304 46.6524 22.9988 46.3743 22.4292C44.1975 17.9632 39.761 15.1901 34.7976 15.1901C29.8342 15.1901 25.3977 17.9632 23.2209 22.4292C22.8331 23.2261 21.8731 23.5577 21.0762 23.1673C20.2793 22.7795 19.9477 21.8195 20.3381 21.0225C23.0551 15.4441 28.5988 11.9783 34.8003 11.9783C41.0018 11.9783 46.5428 15.4441 49.2625 21.0225C49.6502 21.8195 49.3186 22.7795 48.5244 23.1673C48.2971 23.2769 48.0591 23.3304 47.8237 23.3304H47.8184Z" fill="#82CD47"/>
<path d="M30.7835 11.0451C29.1683 11.0451 27.3124 10.2241 25.772 8.68375C23.2503 6.16196 22.6592 2.80047 24.4296 1.03013C25.3682 0.0914834 26.8043 -0.224075 28.366 0.163687C29.6604 0.487268 30.9814 1.27081 32.0832 2.37259C34.605 4.89438 35.196 8.25588 33.4257 10.0262C32.7384 10.7135 31.8104 11.0451 30.7835 11.0451ZM27.0771 3.20695C26.8711 3.20695 26.7428 3.25241 26.6973 3.29787C26.6198 3.37543 26.5476 3.67761 26.6759 4.18839C26.8578 4.91578 27.3552 5.72606 28.0398 6.41334C29.5026 7.87614 30.9279 7.98578 31.1552 7.7558C31.3826 7.52581 31.2729 6.10313 29.8101 4.64033C29.1255 3.95573 28.3152 3.45833 27.5852 3.27648C27.3819 3.22567 27.2108 3.20695 27.0744 3.20695H27.0771Z" fill="#82CD47"/>
<path d="M38.8331 11.0558C37.7821 11.0558 36.8515 10.7028 36.1749 10.0262C34.4045 8.25587 34.9956 4.89437 37.5173 2.37259C38.6191 1.27081 39.9375 0.48726 41.2345 0.16368C42.7962 -0.226756 44.2323 0.0888016 45.171 1.03013C46.1096 1.96878 46.4252 3.40483 46.0374 4.96658C45.7138 6.2609 44.9303 7.58197 43.8285 8.68374C42.7267 9.78552 41.4083 10.5691 40.1113 10.8926C39.6728 11.0023 39.2449 11.0558 38.8331 11.0558ZM42.5208 3.20694C42.3844 3.20694 42.2133 3.22566 42.01 3.27647C41.2826 3.45832 40.4724 3.95572 39.7851 4.64032C38.3223 6.10312 38.2153 7.52848 38.4426 7.75579C38.5202 7.83334 38.8224 7.90287 39.3331 7.77718C40.0605 7.59534 40.8708 7.09793 41.5581 6.41333C42.2454 5.72873 42.7401 4.91844 42.9219 4.18838C43.0503 3.6776 42.9781 3.37542 42.9005 3.29787C42.8524 3.24973 42.724 3.20694 42.5208 3.20694Z" fill="#82CD47"/>
<path d="M2.75504 23.3305C1.97416 23.3305 1.28689 22.7582 1.16922 21.9613C1.11307 21.5788 1.08365 21.1884 1.08365 20.8006C1.08365 16.5567 4.47456 13.0909 8.68645 12.9652C8.80947 8.75061 12.2779 5.36237 16.5192 5.36237C20.7606 5.36237 24.3574 8.87897 24.3574 13.2005C24.3574 14.0857 23.638 14.805 22.7528 14.805C21.8677 14.805 21.1483 14.0857 21.1483 13.2005C21.1483 10.6493 19.0731 8.57143 16.5192 8.57143C13.9654 8.57143 11.8902 10.6466 11.8902 13.2005C11.8902 13.5802 11.9437 13.9734 12.0479 14.3718C12.1924 14.9227 12.0319 15.5084 11.6308 15.9122C11.227 16.316 10.6413 16.4738 10.0904 16.3293C9.69196 16.2251 9.29618 16.1716 8.91911 16.1716C6.36791 16.1716 4.29004 18.2468 4.29004 20.8006C4.29004 21.0306 4.30608 21.2633 4.34085 21.4906C4.47188 22.3677 3.86484 23.1834 2.99037 23.3144C2.91014 23.3251 2.82991 23.3331 2.75236 23.3331L2.75504 23.3305Z" fill="#82CD47"/>
<path d="M6.86485 68.784C8.03819 68.784 9.07285 69.0187 9.96885 69.488C10.8755 69.9573 11.5795 70.6187 12.0809 71.472C12.5822 72.3147 12.8329 73.2853 12.8329 74.384C12.8329 75.4827 12.5769 76.4587 12.0649 77.312C11.5635 78.1653 10.8489 78.8267 9.92086 79.296C9.00352 79.7653 7.94752 80 6.75285 80H2.03285V68.784H6.86485ZM6.94486 77.632C7.51019 77.632 8.01152 77.4987 8.44885 77.232C8.88619 76.9653 9.22752 76.5867 9.47286 76.096C9.71819 75.6053 9.84086 75.0453 9.84086 74.416C9.84086 73.776 9.70752 73.2107 9.44086 72.72C9.18486 72.2293 8.82752 71.8507 8.36885 71.584C7.91019 71.3067 7.38752 71.168 6.80086 71.168H4.96086V77.632H6.94486ZM14.2829 71.344H17.1149V80H14.2829V71.344ZM15.6749 67.36C16.1122 67.36 16.4695 67.504 16.7469 67.792C17.0349 68.0693 17.1789 68.432 17.1789 68.88C17.1789 69.3173 17.0349 69.68 16.7469 69.968C16.4695 70.256 16.1122 70.4 15.6749 70.4C15.2375 70.4 14.8749 70.256 14.5869 69.968C14.3095 69.68 14.1709 69.3173 14.1709 68.88C14.1709 68.432 14.3095 68.0693 14.5869 67.792C14.8749 67.504 15.2375 67.36 15.6749 67.36ZM22.1465 72.784C22.4451 72.2827 22.8291 71.8987 23.2985 71.632C23.7785 71.3653 24.3225 71.232 24.9305 71.232V73.84C24.8345 73.8293 24.6905 73.824 24.4985 73.824C23.8265 73.824 23.2825 73.984 22.8665 74.304C22.4505 74.6133 22.2105 75.04 22.1465 75.584V80H19.2985V71.344H22.1465V72.784ZM29.9815 71.248C31.3895 71.248 32.4721 71.664 33.2295 72.496C33.9868 73.328 34.3655 74.4693 34.3655 75.92C34.3655 76.144 34.3601 76.3147 34.3495 76.432H28.3335C28.4721 76.9227 28.7121 77.3013 29.0535 77.568C29.3948 77.824 29.8108 77.952 30.3015 77.952C30.6748 77.952 31.0321 77.8773 31.3735 77.728C31.7255 77.5787 32.0455 77.36 32.3335 77.072L33.8215 78.56C33.3735 79.0613 32.8295 79.4453 32.1895 79.712C31.5601 79.968 30.8455 80.096 30.0455 80.096C29.1175 80.096 28.3068 79.9147 27.6135 79.552C26.9201 79.1893 26.3868 78.6773 26.0135 78.016C25.6508 77.3547 25.4695 76.5867 25.4695 75.712C25.4695 74.8267 25.6561 74.048 26.0295 73.376C26.4028 72.6933 26.9308 72.1707 27.6135 71.808C28.2961 71.4347 29.0855 71.248 29.9815 71.248ZM31.5975 74.912C31.5975 74.4107 31.4481 74.0107 31.1495 73.712C30.8615 73.4027 30.4775 73.248 29.9975 73.248C29.5495 73.248 29.1708 73.3973 28.8615 73.696C28.5628 73.9947 28.3655 74.4 28.2695 74.912H31.5975ZM41.3981 74.496C40.9928 73.8987 40.4274 73.6 39.7021 73.6C39.1901 73.6 38.7741 73.7973 38.4541 74.192C38.1341 74.576 37.9741 75.0773 37.9741 75.696C37.9741 76.3253 38.1341 76.832 38.4541 77.216C38.7741 77.6 39.1901 77.792 39.7021 77.792C40.4914 77.792 41.0568 77.4667 41.3981 76.816L43.4941 78.016C43.1528 78.6773 42.6408 79.1893 41.9581 79.552C41.2754 79.9147 40.4754 80.096 39.5581 80.096C38.6728 80.096 37.8941 79.9147 37.2221 79.552C36.5501 79.1893 36.0274 78.6773 35.6541 78.016C35.2914 77.3547 35.1101 76.5867 35.1101 75.712C35.1101 74.8267 35.2968 74.048 35.6701 73.376C36.0434 72.6933 36.5661 72.1707 37.2381 71.808C37.9208 71.4347 38.7048 71.248 39.5901 71.248C40.4541 71.248 41.2221 71.4293 41.8941 71.792C42.5661 72.144 43.0888 72.6453 43.4621 73.296L41.3981 74.496ZM50.4305 79.552C50.1105 79.7333 49.7425 79.8773 49.3265 79.984C48.9105 80.08 48.4891 80.128 48.0625 80.128C47.2091 80.128 46.5158 79.8827 45.9825 79.392C45.4598 78.9013 45.1985 78.224 45.1985 77.36V73.648H43.9985V71.76H45.1985V69.36H48.0305V71.76H50.2705V73.648H48.0305V76.912C48.0305 77.52 48.2811 77.824 48.7825 77.824C49.0918 77.824 49.4598 77.728 49.8865 77.536L50.4305 79.552ZM55.752 71.248C56.6906 71.248 57.5173 71.4347 58.232 71.808C58.9466 72.1707 59.5013 72.688 59.896 73.36C60.2906 74.0213 60.488 74.7893 60.488 75.664C60.488 76.5493 60.2906 77.328 59.896 78C59.5013 78.6613 58.9466 79.1787 58.232 79.552C57.5173 79.9147 56.6906 80.096 55.752 80.096C54.8133 80.096 53.9866 79.9147 53.272 79.552C52.5573 79.1787 52.0026 78.6613 51.608 78C51.224 77.328 51.032 76.5493 51.032 75.664C51.032 74.7893 51.224 74.0213 51.608 73.36C52.0026 72.688 52.5573 72.1707 53.272 71.808C53.9866 71.4347 54.8133 71.248 55.752 71.248ZM55.752 73.552C55.1973 73.552 54.7493 73.7493 54.408 74.144C54.0666 74.5387 53.896 75.056 53.896 75.696C53.896 76.3467 54.0666 76.8693 54.408 77.264C54.7493 77.6587 55.1973 77.856 55.752 77.856C56.3173 77.856 56.7706 77.6587 57.112 77.264C57.4533 76.8693 57.624 76.3467 57.624 75.696C57.624 75.056 57.448 74.5387 57.096 74.144C56.7546 73.7493 56.3066 73.552 55.752 73.552ZM64.7871 72.784C65.0858 72.2827 65.4698 71.8987 65.9391 71.632C66.4191 71.3653 66.9631 71.232 67.5711 71.232V73.84C67.4751 73.8293 67.3311 73.824 67.1391 73.824C66.4671 73.824 65.9231 73.984 65.5071 74.304C65.0911 74.6133 64.8511 75.04 64.7871 75.584V80H61.9391V71.344H64.7871V72.784Z" fill="#82CD47"/>
</svg>
